<?xml version="1.0" encoding="utf-8"?>
<!-- Generator: Adobe Illustrator 24.1.2, SVG Export Plug-In . SVG Version: 6.00 Build 0)  -->
<svg version="1.1" id="logo" xmlns="http://www.w3.org/2000/svg" xmlns:xlink="http://www.w3.org/1999/xlink" x="0px" y="0px"
	 viewBox="0 0 1920 1080" style="enable-background:new 0 0 1920 1080;" xml:space="preserve">
<style type="text/css">
	.st0{fill:#F16363;}
	.st1{fill:#FFCC00;}
</style>
<rect id="line_3_" x="1601.87" y="170" transform="matrix(-0.866 -0.5 0.5 -0.866 2813.28 1872.1405)" width="111.19" height="778.32"/>
<rect id="line_2_" x="670.11" y="170" transform="matrix(-0.866 -0.5 0.5 -0.866 1074.5972 1406.2623)" width="111.19" height="778.32"/>
<g id="shadow_1_">
	<path d="M988.68,590.43c0-0.09-0.01-0.18-0.01-0.28c0-0.09,0.01-0.18,0.01-0.28c0-0.09-0.01-0.18-0.01-0.28
		c0-0.09,0.01-0.18,0.01-0.28c0-0.09-0.01-0.18-0.01-0.28c0-0.09,0.01-0.18,0.01-0.28s-0.01-0.18-0.01-0.28
		c0-0.09,0.01-0.18,0.01-0.28c0-0.09-0.01-0.18-0.01-0.28s0.01-0.18,0.01-0.28c0-0.09-0.01-0.18-0.01-0.28
		c0-0.09,0.01-0.18,0.01-0.28s-0.01-0.18-0.01-0.28c0-0.09,0.01-0.18,0.01-0.28c0-0.09-0.01-0.18-0.01-0.28
		c0-0.09,0.01-0.18,0.01-0.28c0-0.09-0.01-0.18-0.01-0.28c0-0.09,0.01-0.18,0.01-0.28s-0.01-0.18-0.01-0.28
		c0-0.09,0.01-0.18,0.01-0.28c0-0.09-0.01-0.18-0.01-0.28s0.01-0.18,0.01-0.28c0-0.09-0.01-0.18-0.01-0.28
		c0-0.09,0.01-0.18,0.01-0.28s-0.01-0.18-0.01-0.28c0-0.09,0.01-0.18,0.01-0.28c0-0.09-0.01-0.18-0.01-0.28
		c0-0.09,0.01-0.18,0.01-0.28c0-0.09-0.01-0.18-0.01-0.28c0-0.09,0.01-0.18,0.01-0.28s-0.01-0.18-0.01-0.28
		c0-0.09,0.01-0.18,0.01-0.28c0-0.09-0.01-0.18-0.01-0.28s0.01-0.18,0.01-0.28c0-0.09-0.01-0.18-0.01-0.28
		c0-0.09,0.01-0.18,0.01-0.28s-0.01-0.18-0.01-0.28c0-0.09,0.01-0.18,0.01-0.28c0-0.09-0.01-0.18-0.01-0.28s0.01-0.18,0.01-0.28
		c0-0.09-0.01-0.18-0.01-0.28c0-0.09,0.01-0.18,0.01-0.28s-0.01-0.18-0.01-0.28c0-0.09,0.01-0.18,0.01-0.28
		c0-0.09-0.01-0.18-0.01-0.28s0.01-0.18,0.01-0.28c0-0.09-0.01-0.18-0.01-0.28c0-0.09,0.01-0.18,0.01-0.28s-0.01-0.18-0.01-0.28
		c0-0.09,0.01-0.18,0.01-0.28c0-0.09-0.01-0.18-0.01-0.28s0.01-0.18,0.01-0.28c0-0.09-0.01-0.18-0.01-0.28
		c0-0.09,0.01-0.18,0.01-0.28s-0.01-0.18-0.01-0.28c0-0.09,0.01-0.18,0.01-0.28c0-0.09-0.01-0.18-0.01-0.28s0.01-0.18,0.01-0.28
		c0-0.09-0.01-0.18-0.01-0.28c0-0.09,0.01-0.18,0.01-0.28c0-0.09-0.01-0.18-0.01-0.28c0-0.09,0.01-0.18,0.01-0.28
		c0-0.09-0.01-0.18-0.01-0.28s0.01-0.18,0.01-0.28c0-0.09-0.01-0.18-0.01-0.28c0-0.09,0.01-0.18,0.01-0.28s-0.01-0.18-0.01-0.28
		c0-0.09,0.01-0.18,0.01-0.28c0-0.09-0.01-0.18-0.01-0.28s0.01-0.18,0.01-0.28c0-0.09-0.01-0.18-0.01-0.28
		c0-0.09,0.01-0.18,0.01-0.28c0-0.09-0.01-0.18-0.01-0.28c0-0.09,0.01-0.18,0.01-0.28c0-0.09-0.01-0.18-0.01-0.28
		s0.01-0.18,0.01-0.28c0-0.09-0.01-0.18-0.01-0.28c0-0.09,0.01-0.18,0.01-0.28s-0.01-0.18-0.01-0.28c0-0.09,0.01-0.18,0.01-0.28
		c0-0.09-0.01-0.18-0.01-0.28s0.01-0.18,0.01-0.28c0-0.09-0.01-0.18-0.01-0.28c0-0.09,0.01-0.18,0.01-0.28
		c0-0.09-0.01-0.18-0.01-0.28c0-0.09,0.01-0.18,0.01-0.28c0-0.09-0.01-0.18-0.01-0.28s0.01-0.18,0.01-0.28
		c0-0.09-0.01-0.18-0.01-0.28c0-0.09,0.01-0.18,0.01-0.28c0-0.09-0.01-0.18-0.01-0.28c0-0.09,0.01-0.18,0.01-0.28
		c0-0.09-0.01-0.18-0.01-0.28s0.01-0.18,0.01-0.28c0-0.09-0.01-0.18-0.01-0.28c0-0.09,0.01-0.18,0.01-0.28
		c0-0.09-0.01-0.18-0.01-0.28c0-0.09,0.01-0.18,0.01-0.28c0-0.09-0.01-0.18-0.01-0.28c0-0.09,0.01-0.18,0.01-0.28
		c0-0.09-0.01-0.18-0.01-0.28c0-0.09,0.01-0.18,0.01-0.28c0-0.09-0.01-0.18-0.01-0.28c0-0.09,0.01-0.18,0.01-0.28
		c0-0.09-0.01-0.18-0.01-0.28c0-0.09,0.01-0.18,0.01-0.28c0-0.09-0.01-0.18-0.01-0.28c0-0.09,0.01-0.18,0.01-0.28
		c0-0.09-0.01-0.18-0.01-0.28c0-0.09,0.01-0.18,0.01-0.28c0-0.09-0.01-0.18-0.01-0.28c0-0.09,0.01-0.18,0.01-0.28
		c0-0.09-0.01-0.18-0.01-0.28c0-0.09,0.01-0.18,0.01-0.28c0-0.09-0.01-0.18-0.01-0.28c0-0.09,0.01-0.18,0.01-0.28
		c0-0.09-0.01-0.18-0.01-0.28c0-0.09,0.01-0.18,0.01-0.28c0-0.09-0.01-0.18-0.01-0.28c0-0.09,0.01-0.18,0.01-0.28
		c0-0.09-0.01-0.18-0.01-0.28c0-0.09,0.01-0.18,0.01-0.28c0-0.09-0.01-0.18-0.01-0.28c0-0.09,0.01-0.18,0.01-0.28
		c0-0.09-0.01-0.18-0.01-0.28c0-0.09,0.01-0.18,0.01-0.28c0-0.09-0.01-0.18-0.01-0.28c0-0.09,0.01-0.18,0.01-0.28
		c0-0.09-0.01-0.18-0.01-0.28c0-0.09,0.01-0.18,0.01-0.28s-0.01-0.18-0.01-0.28c0-0.09,0.01-0.18,0.01-0.28
		c0-0.09-0.01-0.18-0.01-0.28c0-0.09,0.01-0.18,0.01-0.28c0-0.09-0.01-0.18-0.01-0.28c0-0.09,0.01-0.18,0.01-0.28
		s-0.01-0.18-0.01-0.28c0-0.09,0.01-0.18,0.01-0.28c0-0.09-0.01-0.18-0.01-0.28s0.01-0.18,0.01-0.28c0-0.09-0.01-0.18-0.01-0.28
		c0-0.09,0.01-0.18,0.01-0.28s-0.01-0.18-0.01-0.28c0-0.09,0.01-0.18,0.01-0.28c0-0.09-0.01-0.18-0.01-0.28
		c0-0.09,0.01-0.18,0.01-0.28c0-0.09-0.01-0.18-0.01-0.28c0-0.09,0.01-0.18,0.01-0.28s-0.01-0.18-0.01-0.28
		c0-0.09,0.01-0.18,0.01-0.28c0-0.09-0.01-0.18-0.01-0.28s0.01-0.18,0.01-0.28c0-0.09-0.01-0.18-0.01-0.28
		c0-0.09,0.01-0.18,0.01-0.28s-0.01-0.18-0.01-0.28c0-0.09,0.01-0.18,0.01-0.28c0-0.09-0.01-0.18-0.01-0.28
		c0-0.09,0.01-0.18,0.01-0.28c0-0.09-0.01-0.18-0.01-0.28c0-0.09,0.01-0.18,0.01-0.28s-0.01-0.18-0.01-0.28
		c0-0.09,0.01-0.18,0.01-0.28c0-0.09-0.01-0.18-0.01-0.28s0.01-0.18,0.01-0.28c0-0.09-0.01-0.18-0.01-0.28
		c0-0.09,0.01-0.18,0.01-0.28s-0.01-0.18-0.01-0.28c0-0.09,0.01-0.18,0.01-0.28c0-0.09-0.01-0.18-0.01-0.28s0.01-0.18,0.01-0.28
		c0-0.09-0.01-0.18-0.01-0.28c0-0.09,0.01-0.18,0.01-0.28s-0.01-0.18-0.01-0.28c0-0.09,0.01-0.18,0.01-0.28
		c0-0.09-0.01-0.18-0.01-0.28s0.01-0.18,0.01-0.28c0-0.09-0.01-0.18-0.01-0.28c0-0.09,0.01-0.18,0.01-0.28s-0.01-0.18-0.01-0.28
		c0-0.09,0.01-0.18,0.01-0.28c0-0.09-0.01-0.18-0.01-0.28s0.01-0.18,0.01-0.28c0-0.09-0.01-0.18-0.01-0.28
		c0-0.09,0.01-0.18,0.01-0.28s-0.01-0.18-0.01-0.28c0-0.09,0.01-0.18,0.01-0.28c0-0.09-0.01-0.18-0.01-0.28s0.01-0.18,0.01-0.28
		c0-0.09-0.01-0.18-0.01-0.28c0-0.09,0.01-0.18,0.01-0.28c0-0.09-0.01-0.18-0.01-0.28c0-0.09,0.01-0.18,0.01-0.28
		c0-0.09-0.01-0.18-0.01-0.28s0.01-0.18,0.01-0.28c0-0.09-0.01-0.18-0.01-0.28c0-0.09,0.01-0.18,0.01-0.28s-0.01-0.18-0.01-0.28
		c0-0.09,0.01-0.18,0.01-0.28c0-0.09-0.01-0.18-0.01-0.28s0.01-0.18,0.01-0.28c0-0.09-0.01-0.18-0.01-0.28
		c0-0.09,0.01-0.18,0.01-0.28c0-0.09-0.01-0.18-0.01-0.28c0-0.09,0.01-0.18,0.01-0.28c0-0.09-0.01-0.18-0.01-0.28
		s0.01-0.18,0.01-0.28c0-0.09-0.01-0.18-0.01-0.28c0-0.09,0.01-0.18,0.01-0.28s-0.01-0.18-0.01-0.28c0-0.09,0.01-0.18,0.01-0.28
		c0-0.09-0.01-0.18-0.01-0.28s0.01-0.18,0.01-0.28c0-0.09-0.01-0.18-0.01-0.28c0-0.09,0.01-0.18,0.01-0.28
		c0-0.09-0.01-0.18-0.01-0.28c0-0.09,0.01-0.18,0.01-0.28c0-0.09-0.01-0.18-0.01-0.28s0.01-0.18,0.01-0.28
		c0-0.09-0.01-0.18-0.01-0.28c0-0.09,0.01-0.18,0.01-0.28c0-0.09-0.01-0.18-0.01-0.28c0-0.09,0.01-0.18,0.01-0.28
		c0-0.09-0.01-0.18-0.01-0.28s0.01-0.18,0.01-0.28c0-0.09-0.01-0.18-0.01-0.28c0-0.09,0.01-0.18,0.01-0.28
		c0-0.09-0.01-0.18-0.01-0.28c0-0.09,0.01-0.18,0.01-0.28c0-0.09-0.01-0.18-0.01-0.28c0-0.09,0.01-0.18,0.01-0.28
		c0-0.09-0.01-0.18-0.01-0.28c0-0.09,0.01-0.18,0.01-0.28c0-0.09-0.01-0.18-0.01-0.28c0-0.09,0.01-0.18,0.01-0.28
		c0-0.09-0.01-0.18-0.01-0.28s0.01-0.18,0.01-0.28c0-0.09-0.01-0.18-0.01-0.28c0-0.09,0.01-0.18,0.01-0.28
		c0-0.09-0.01-0.18-0.01-0.27c0-0.1,0.01-0.19,0.01-0.28c0-46.7-11.34-88.61-34.02-125.76c-22.68-37.12-54.04-66.15-94.06-87.06
		c-40.03-20.89-85.18-31.35-135.43-31.35c-50.26,0-95.4,10.46-135.43,31.35c-40.02,20.91-71.38,49.94-94.06,87.06
		c-22.68,37.15-34.02,79.06-34.02,125.76c0,0.1,0.01,0.19,0.01,0.28c0,0.09-0.01,0.18-0.01,0.27c0,0.09,0.01,0.18,0.01,0.28
		c0,0.09-0.01,0.18-0.01,0.28c0,0.09,0.01,0.18,0.01,0.28s-0.01,0.18-0.01,0.28c0,0.09,0.01,0.18,0.01,0.28
		c0,0.09-0.01,0.18-0.01,0.28c0,0.09,0.01,0.18,0.01,0.28c0,0.09-0.01,0.18-0.01,0.28c0,0.09,0.01,0.18,0.01,0.28
		c0,0.09-0.01,0.18-0.01,0.28c0,0.09,0.01,0.18,0.01,0.28c0,0.09-0.01,0.18-0.01,0.28c0,0.09,0.01,0.18,0.01,0.28
		c0,0.09-0.01,0.18-0.01,0.28c0,0.09,0.01,0.18,0.01,0.28s-0.01,0.18-0.01,0.28c0,0.09,0.01,0.18,0.01,0.28
		c0,0.09-0.01,0.18-0.01,0.28c0,0.09,0.01,0.18,0.01,0.28c0,0.09-0.01,0.18-0.01,0.28c0,0.09,0.01,0.18,0.01,0.28
		s-0.01,0.18-0.01,0.28c0,0.09,0.01,0.18,0.01,0.28c0,0.09-0.01,0.18-0.01,0.28c0,0.09,0.01,0.18,0.01,0.28
		c0,0.09-0.01,0.18-0.01,0.28c0,0.09,0.01,0.18,0.01,0.28s-0.01,0.18-0.01,0.28c0,0.09,0.01,0.18,0.01,0.28
		c0,0.09-0.01,0.18-0.01,0.28s0.01,0.18,0.01,0.28c0,0.09-0.01,0.18-0.01,0.28c0,0.09,0.01,0.18,0.01,0.28s-0.01,0.18-0.01,0.28
		c0,0.09,0.01,0.18,0.01,0.28c0,0.09-0.01,0.18-0.01,0.28c0,0.09,0.01,0.18,0.01,0.28c0,0.09-0.01,0.18-0.01,0.28
		c0,0.09,0.01,0.18,0.01,0.28s-0.01,0.18-0.01,0.28c0,0.09,0.01,0.18,0.01,0.28c0,0.09-0.01,0.18-0.01,0.28s0.01,0.18,0.01,0.28
		c0,0.09-0.01,0.18-0.01,0.28c0,0.09,0.01,0.18,0.01,0.28s-0.01,0.18-0.01,0.28c0,0.09,0.01,0.18,0.01,0.28
		c0,0.09-0.01,0.18-0.01,0.28c0,0.09,0.01,0.18,0.01,0.28c0,0.09-0.01,0.18-0.01,0.28c0,0.09,0.01,0.18,0.01,0.28
		s-0.01,0.18-0.01,0.28c0,0.09,0.01,0.18,0.01,0.28c0,0.09-0.01,0.18-0.01,0.28s0.01,0.18,0.01,0.28c0,0.09-0.01,0.18-0.01,0.28
		c0,0.09,0.01,0.18,0.01,0.28s-0.01,0.18-0.01,0.28c0,0.09,0.01,0.18,0.01,0.28c0,0.09-0.01,0.18-0.01,0.28s0.01,0.18,0.01,0.28
		c0,0.09-0.01,0.18-0.01,0.28c0,0.09,0.01,0.18,0.01,0.28s-0.01,0.18-0.01,0.28c0,0.09,0.01,0.18,0.01,0.28
		c0,0.09-0.01,0.18-0.01,0.28s0.01,0.18,0.01,0.28c0,0.09-0.01,0.18-0.01,0.28c0,0.09,0.01,0.18,0.01,0.28s-0.01,0.18-0.01,0.28
		c0,0.09,0.01,0.18,0.01,0.28c0,0.09-0.01,0.18-0.01,0.28s0.01,0.18,0.01,0.28c0,0.09-0.01,0.18-0.01,0.28
		c0,0.09,0.01,0.18,0.01,0.28s-0.01,0.18-0.01,0.28c0,0.09,0.01,0.18,0.01,0.28c0,0.09-0.01,0.18-0.01,0.28s0.01,0.18,0.01,0.28
		c0,0.09-0.01,0.18-0.01,0.28c0,0.09,0.01,0.18,0.01,0.28c0,0.09-0.01,0.18-0.01,0.28c0,0.09,0.01,0.18,0.01,0.28
		c0,0.09-0.01,0.18-0.01,0.28s0.01,0.18,0.01,0.28c0,0.09-0.01,0.18-0.01,0.28c0,0.09,0.01,0.18,0.01,0.28s-0.01,0.18-0.01,0.28
		c0,0.09,0.01,0.18,0.01,0.28c0,0.09-0.01,0.18-0.01,0.28s0.01,0.18,0.01,0.28c0,0.09-0.01,0.18-0.01,0.28
		c0,0.09,0.01,0.18,0.01,0.28c0,0.09-0.01,0.18-0.01,0.28c0,0.09,0.01,0.18,0.01,0.28c0,0.09-0.01,0.18-0.01,0.28
		s0.01,0.18,0.01,0.28c0,0.09-0.01,0.18-0.01,0.28c0,0.09,0.01,0.18,0.01,0.28s-0.01,0.18-0.01,0.28c0,0.09,0.01,0.18,0.01,0.28
		c0,0.09-0.01,0.18-0.01,0.28s0.01,0.18,0.01,0.28c0,0.09-0.01,0.18-0.01,0.28c0,0.09,0.01,0.18,0.01,0.28
		c0,0.09-0.01,0.18-0.01,0.28c0,0.09,0.01,0.18,0.01,0.28c0,0.09-0.01,0.18-0.01,0.28s0.01,0.18,0.01,0.28
		c0,0.09-0.01,0.18-0.01,0.28c0,0.09,0.01,0.18,0.01,0.28c0,0.09-0.01,0.18-0.01,0.28c0,0.09,0.01,0.18,0.01,0.28
		c0,0.09-0.01,0.18-0.01,0.28c0,0.09,0.01,0.18,0.01,0.28c0,0.09-0.01,0.18-0.01,0.28c0,0.09,0.01,0.18,0.01,0.28
		c0,0.09-0.01,0.18-0.01,0.28c0,0.09,0.01,0.18,0.01,0.28c0,0.09-0.01,0.18-0.01,0.28c0,0.09,0.01,0.18,0.01,0.28
		c0,0.09-0.01,0.18-0.01,0.28c0,0.09,0.01,0.18,0.01,0.28c0,0.09-0.01,0.18-0.01,0.28c0,0.09,0.01,0.18,0.01,0.28
		c0,0.09-0.01,0.18-0.01,0.28c0,0.09,0.01,0.18,0.01,0.28c0,0.09-0.01,0.18-0.01,0.28c0,0.09,0.01,0.18,0.01,0.28
		c0,0.09-0.01,0.18-0.01,0.28c0,0.09,0.01,0.18,0.01,0.28c0,0.09-0.01,0.18-0.01,0.28c0,0.09,0.01,0.18,0.01,0.28
		c0,0.09-0.01,0.18-0.01,0.28c0,0.09,0.01,0.18,0.01,0.28c0,0.09-0.01,0.18-0.01,0.28c0,0.09,0.01,0.18,0.01,0.28
		c0,0.09-0.01,0.18-0.01,0.28c0,0.09,0.01,0.18,0.01,0.28c0,0.09-0.01,0.18-0.01,0.28c0,0.09,0.01,0.18,0.01,0.28
		c0,0.09-0.01,0.18-0.01,0.28c0,0.09,0.01,0.18,0.01,0.28c0,0.09-0.01,0.18-0.01,0.28c0,0.09,0.01,0.18,0.01,0.28
		s-0.01,0.18-0.01,0.28c0,0.09,0.01,0.18,0.01,0.28c0,0.09-0.01,0.18-0.01,0.28c0,0.09,0.01,0.18,0.01,0.28
		c0,0.09-0.01,0.18-0.01,0.28c0,0.09,0.01,0.18,0.01,0.28s-0.01,0.18-0.01,0.28c0,0.09,0.01,0.18,0.01,0.28
		c0,0.09-0.01,0.18-0.01,0.28c0,0.09,0.01,0.18,0.01,0.28c0,0.09-0.01,0.18-0.01,0.28c0,0.09,0.01,0.18,0.01,0.28
		s-0.01,0.18-0.01,0.28c0,0.09,0.01,0.18,0.01,0.28c0,0.09-0.01,0.18-0.01,0.28s0.01,0.18,0.01,0.28c0,0.09-0.01,0.18-0.01,0.28
		c0,0.09,0.01,0.18,0.01,0.28s-0.01,0.18-0.01,0.28c0,0.09,0.01,0.18,0.01,0.28c0,0.09-0.01,0.18-0.01,0.28
		c0,0.09,0.01,0.18,0.01,0.28c0,0.09-0.01,0.18-0.01,0.28c0,0.09,0.01,0.18,0.01,0.28s-0.01,0.18-0.01,0.28
		c0,0.09,0.01,0.18,0.01,0.28c0,0.09-0.01,0.18-0.01,0.28s0.01,0.18,0.01,0.28c0,0.09-0.01,0.18-0.01,0.28
		c0,0.09,0.01,0.18,0.01,0.28s-0.01,0.18-0.01,0.28c0,0.09,0.01,0.18,0.01,0.28c0,0.09-0.01,0.18-0.01,0.28
		c0,0.09,0.01,0.18,0.01,0.28c0,0.09-0.01,0.18-0.01,0.28c0,0.09,0.01,0.18,0.01,0.28s-0.01,0.18-0.01,0.28
		c0,0.09,0.01,0.18,0.01,0.28c0,0.09-0.01,0.18-0.01,0.28s0.01,0.18,0.01,0.28c0,0.09-0.01,0.18-0.01,0.28
		c0,0.09,0.01,0.18,0.01,0.28s-0.01,0.18-0.01,0.28c0,0.09,0.01,0.18,0.01,0.28c0,0.09-0.01,0.18-0.01,0.28s0.01,0.18,0.01,0.28
		c0,0.09-0.01,0.18-0.01,0.28c0,0.09,0.01,0.18,0.01,0.28s-0.01,0.18-0.01,0.28c0,0.09,0.01,0.18,0.01,0.28
		c0,0.09-0.01,0.18-0.01,0.28s0.01,0.18,0.01,0.28c0,0.09-0.01,0.18-0.01,0.28c0,0.09,0.01,0.18,0.01,0.28s-0.01,0.18-0.01,0.28
		c0,0.09,0.01,0.18,0.01,0.28c0,0.09-0.01,0.18-0.01,0.28s0.01,0.18,0.01,0.28c0,0.09-0.01,0.18-0.01,0.28
		c0,0.09,0.01,0.18,0.01,0.28s-0.01,0.18-0.01,0.28c0,0.09,0.01,0.18,0.01,0.28c0,0.09-0.01,0.18-0.01,0.28s0.01,0.18,0.01,0.28
		c0,0.09-0.01,0.18-0.01,0.28c0,0.09,0.01,0.18,0.01,0.28c0,0.09-0.01,0.18-0.01,0.28c0,0.09,0.01,0.18,0.01,0.28
		c0,0.09-0.01,0.18-0.01,0.28s0.01,0.18,0.01,0.28c0,0.09-0.01,0.18-0.01,0.28c0,0.09,0.01,0.18,0.01,0.28s-0.01,0.18-0.01,0.28
		c0,0.09,0.01,0.18,0.01,0.28c0,0.09-0.01,0.18-0.01,0.28s0.01,0.18,0.01,0.28c0,0.09-0.01,0.18-0.01,0.28
		c0,0.09,0.01,0.18,0.01,0.28c0,0.09-0.01,0.18-0.01,0.28c0,0.09,0.01,0.18,0.01,0.28c0,0.09-0.01,0.18-0.01,0.28
		s0.01,0.18,0.01,0.28c0,0.09-0.01,0.18-0.01,0.28c0,0.09,0.01,0.18,0.01,0.28s-0.01,0.18-0.01,0.28c0,0.09,0.01,0.18,0.01,0.28
		c0,0.09-0.01,0.18-0.01,0.28s0.01,0.18,0.01,0.28c0,0.09-0.01,0.18-0.01,0.28c0,0.09,0.01,0.18,0.01,0.28
		c0,0.09-0.01,0.18-0.01,0.28c0,0.09,0.01,0.18,0.01,0.28c0,0.09-0.01,0.18-0.01,0.28c0,46.7,11.34,88.62,34.02,125.75
		c22.68,37.15,54.04,66.16,94.06,87.06c40.03,20.9,85.17,31.36,135.43,31.36c50.25,0,95.4-10.46,135.43-31.36
		c40.03-20.9,71.38-49.92,94.06-87.06C977.34,679.06,988.68,637.14,988.68,590.43z M634.44,585.43c-4.63-8.71-8.1-18.17-10.43-28.35
		c2.33-10.18,5.8-19.64,10.43-28.35c9.34-17.57,21.9-31.13,37.69-40.7c15.78-9.57,33.46-14.34,53.04-14.34
		c19.57,0,37.24,4.78,53.04,14.34c15.78,9.57,28.35,23.13,37.69,40.7c4.63,8.71,8.1,18.17,10.43,28.35
		c-2.33,10.18-5.8,19.64-10.43,28.35c-9.34,17.58-21.91,31.13-37.69,40.7c-15.79,9.57-33.47,14.34-53.04,14.34
		c-19.58,0-37.25-4.78-53.04-14.34C656.34,616.56,643.78,603.01,634.44,585.43z"/>
	<path d="M1919.99,524c0-0.1,0.01-0.19,0.01-0.28c0-46.7-11.34-88.61-34.03-125.76c-22.67-37.12-54.03-66.15-94.05-87.06
		c-40.05-20.89-85.17-31.35-135.42-31.35c-50.27,0-95.41,10.46-135.43,31.35c-40.02,20.91-71.38,49.94-94.08,87.06
		c-22.67,37.15-34.01,79.06-34.01,125.76c0,0.1,0.01,0.19,0.01,0.28c0,0.09-0.01,0.18-0.01,0.27c0,0.09,0.01,0.18,0.01,0.28
		c0,0.09-0.01,0.18-0.01,0.28c0,0.09,0.01,0.18,0.01,0.28s-0.01,0.18-0.01,0.28c0,0.09,0.01,0.18,0.01,0.28
		c0,0.09-0.01,0.18-0.01,0.28c0,0.09,0.01,0.18,0.01,0.28c0,0.09-0.01,0.18-0.01,0.28c0,0.09,0.01,0.18,0.01,0.28
		c0,0.09-0.01,0.18-0.01,0.28c0,0.09,0.01,0.18,0.01,0.28c0,0.09-0.01,0.18-0.01,0.28c0,0.09,0.01,0.18,0.01,0.28
		c0,0.09-0.01,0.18-0.01,0.28c0,0.09,0.01,0.18,0.01,0.28s-0.01,0.18-0.01,0.28c0,0.09,0.01,0.18,0.01,0.28
		c0,0.09-0.01,0.18-0.01,0.28c0,0.09,0.01,0.18,0.01,0.28c0,0.09-0.01,0.18-0.01,0.28c0,0.09,0.01,0.18,0.01,0.28
		s-0.01,0.18-0.01,0.28c0,0.09,0.01,0.18,0.01,0.28c0,0.09-0.01,0.18-0.01,0.28c0,0.09,0.01,0.18,0.01,0.28
		c0,0.09-0.01,0.18-0.01,0.28c0,0.09,0.01,0.18,0.01,0.28s-0.01,0.18-0.01,0.28c0,0.09,0.01,0.18,0.01,0.28
		c0,0.09-0.01,0.18-0.01,0.28s0.01,0.18,0.01,0.28c0,0.09-0.01,0.18-0.01,0.28c0,0.09,0.01,0.18,0.01,0.28s-0.01,0.18-0.01,0.28
		c0,0.09,0.01,0.18,0.01,0.28c0,0.09-0.01,0.18-0.01,0.28c0,0.09,0.01,0.18,0.01,0.28c0,0.09-0.01,0.18-0.01,0.28
		c0,0.09,0.01,0.18,0.01,0.28s-0.01,0.18-0.01,0.28c0,0.09,0.01,0.18,0.01,0.28c0,0.09-0.01,0.18-0.01,0.28s0.01,0.18,0.01,0.28
		c0,0.09-0.01,0.18-0.01,0.28c0,0.09,0.01,0.18,0.01,0.28s-0.01,0.18-0.01,0.28c0,0.09,0.01,0.18,0.01,0.28
		c0,0.09-0.01,0.18-0.01,0.28c0,0.09,0.01,0.18,0.01,0.28c0,0.09-0.01,0.18-0.01,0.28c0,0.09,0.01,0.18,0.01,0.28
		s-0.01,0.18-0.01,0.28c0,0.09,0.01,0.18,0.01,0.28c0,0.09-0.01,0.18-0.01,0.28s0.01,0.18,0.01,0.28c0,0.09-0.01,0.18-0.01,0.28
		c0,0.09,0.01,0.18,0.01,0.28s-0.01,0.18-0.01,0.28c0,0.09,0.01,0.18,0.01,0.28c0,0.09-0.01,0.18-0.01,0.28s0.01,0.18,0.01,0.28
		c0,0.09-0.01,0.18-0.01,0.28c0,0.09,0.01,0.18,0.01,0.28s-0.01,0.18-0.01,0.28c0,0.09,0.01,0.18,0.01,0.28
		c0,0.09-0.01,0.18-0.01,0.28s0.01,0.18,0.01,0.28c0,0.09-0.01,0.18-0.01,0.28c0,0.09,0.01,0.18,0.01,0.28s-0.01,0.18-0.01,0.28
		c0,0.09,0.01,0.18,0.01,0.28c0,0.09-0.01,0.18-0.01,0.28s0.01,0.18,0.01,0.28c0,0.09-0.01,0.18-0.01,0.28
		c0,0.09,0.01,0.18,0.01,0.28s-0.01,0.18-0.01,0.28c0,0.09,0.01,0.18,0.01,0.28c0,0.09-0.01,0.18-0.01,0.28s0.01,0.18,0.01,0.28
		c0,0.09-0.01,0.18-0.01,0.28c0,0.09,0.01,0.18,0.01,0.28c0,0.09-0.01,0.18-0.01,0.28c0,0.09,0.01,0.18,0.01,0.28
		c0,0.09-0.01,0.18-0.01,0.28s0.01,0.18,0.01,0.28c0,0.09-0.01,0.18-0.01,0.28c0,0.09,0.01,0.18,0.01,0.28s-0.01,0.18-0.01,0.28
		c0,0.09,0.01,0.18,0.01,0.28c0,0.09-0.01,0.18-0.01,0.28s0.01,0.18,0.01,0.28c0,0.09-0.01,0.18-0.01,0.28
		c0,0.09,0.01,0.18,0.01,0.28c0,0.09-0.01,0.18-0.01,0.28c0,0.09,0.01,0.18,0.01,0.28c0,0.09-0.01,0.18-0.01,0.28
		s0.01,0.18,0.01,0.28c0,0.09-0.01,0.18-0.01,0.28c0,0.09,0.01,0.18,0.01,0.28s-0.01,0.18-0.01,0.28c0,0.09,0.01,0.18,0.01,0.28
		c0,0.09-0.01,0.18-0.01,0.28s0.01,0.18,0.01,0.28c0,0.09-0.01,0.18-0.01,0.28c0,0.09,0.01,0.18,0.01,0.28
		c0,0.09-0.01,0.18-0.01,0.28c0,0.09,0.01,0.18,0.01,0.28c0,0.09-0.01,0.18-0.01,0.28s0.01,0.18,0.01,0.28
		c0,0.09-0.01,0.18-0.01,0.28c0,0.09,0.01,0.18,0.01,0.28c0,0.09-0.01,0.18-0.01,0.28c0,0.09,0.01,0.18,0.01,0.28
		c0,0.09-0.01,0.18-0.01,0.28c0,0.09,0.01,0.18,0.01,0.28c0,0.09-0.01,0.18-0.01,0.28c0,0.09,0.01,0.18,0.01,0.28
		c0,0.09-0.01,0.18-0.01,0.28c0,0.09,0.01,0.18,0.01,0.28c0,0.09-0.01,0.18-0.01,0.28c0,0.09,0.01,0.18,0.01,0.28
		c0,0.09-0.01,0.18-0.01,0.28c0,0.09,0.01,0.18,0.01,0.28c0,0.09-0.01,0.18-0.01,0.28c0,0.09,0.01,0.18,0.01,0.28
		c0,0.09-0.01,0.18-0.01,0.28c0,0.09,0.01,0.18,0.01,0.28c0,0.09-0.01,0.18-0.01,0.28c0,0.09,0.01,0.18,0.01,0.28
		c0,0.09-0.01,0.18-0.01,0.28c0,0.09,0.01,0.18,0.01,0.28c0,0.09-0.01,0.18-0.01,0.28c0,0.09,0.01,0.18,0.01,0.28
		c0,0.09-0.01,0.18-0.01,0.28c0,0.09,0.01,0.18,0.01,0.28c0,0.09-0.01,0.18-0.01,0.28c0,0.09,0.01,0.18,0.01,0.28
		c0,0.09-0.01,0.18-0.01,0.28c0,0.09,0.01,0.18,0.01,0.28c0,0.09-0.01,0.18-0.01,0.28c0,0.09,0.01,0.18,0.01,0.28
		c0,0.09-0.01,0.18-0.01,0.28c0,0.09,0.01,0.18,0.01,0.28c0,0.09-0.01,0.18-0.01,0.28c0,0.09,0.01,0.18,0.01,0.28
		s-0.01,0.18-0.01,0.28c0,0.09,0.01,0.18,0.01,0.28c0,0.09-0.01,0.18-0.01,0.28c0,0.09,0.01,0.18,0.01,0.28
		c0,0.09-0.01,0.18-0.01,0.28c0,0.09,0.01,0.18,0.01,0.28s-0.01,0.18-0.01,0.28c0,0.09,0.01,0.18,0.01,0.28
		c0,0.09-0.01,0.18-0.01,0.28c0,0.09,0.01,0.18,0.01,0.28c0,0.09-0.01,0.18-0.01,0.28c0,0.09,0.01,0.18,0.01,0.28
		s-0.01,0.18-0.01,0.28c0,0.09,0.01,0.18,0.01,0.28c0,0.09-0.01,0.18-0.01,0.28s0.01,0.18,0.01,0.28c0,0.09-0.01,0.18-0.01,0.28
		c0,0.09,0.01,0.18,0.01,0.28s-0.01,0.18-0.01,0.28c0,0.09,0.01,0.18,0.01,0.28c0,0.09-0.01,0.18-0.01,0.28
		c0,0.09,0.01,0.18,0.01,0.28c0,0.09-0.01,0.18-0.01,0.28c0,0.09,0.01,0.18,0.01,0.28s-0.01,0.18-0.01,0.28
		c0,0.09,0.01,0.18,0.01,0.28c0,0.09-0.01,0.18-0.01,0.28s0.01,0.18,0.01,0.28c0,0.09-0.01,0.18-0.01,0.28
		c0,0.09,0.01,0.18,0.01,0.28s-0.01,0.18-0.01,0.28c0,0.09,0.01,0.18,0.01,0.28c0,0.09-0.01,0.18-0.01,0.28
		c0,0.09,0.01,0.18,0.01,0.28c0,0.09-0.01,0.18-0.01,0.28c0,0.09,0.01,0.18,0.01,0.28s-0.01,0.18-0.01,0.28
		c0,0.09,0.01,0.18,0.01,0.28c0,0.09-0.01,0.18-0.01,0.28s0.01,0.18,0.01,0.28c0,0.09-0.01,0.18-0.01,0.28
		c0,0.09,0.01,0.18,0.01,0.28s-0.01,0.18-0.01,0.28c0,0.09,0.01,0.18,0.01,0.28c0,0.09-0.01,0.18-0.01,0.28s0.01,0.18,0.01,0.28
		c0,0.09-0.01,0.18-0.01,0.28c0,0.09,0.01,0.18,0.01,0.28s-0.01,0.18-0.01,0.28c0,0.09,0.01,0.18,0.01,0.28
		c0,0.09-0.01,0.18-0.01,0.28s0.01,0.18,0.01,0.28c0,0.09-0.01,0.18-0.01,0.28c0,0.09,0.01,0.18,0.01,0.28s-0.01,0.18-0.01,0.28
		c0,0.09,0.01,0.18,0.01,0.28c0,0.09-0.01,0.18-0.01,0.28s0.01,0.18,0.01,0.28c0,0.09-0.01,0.18-0.01,0.28
		c0,0.09,0.01,0.18,0.01,0.28s-0.01,0.18-0.01,0.28c0,0.09,0.01,0.18,0.01,0.28c0,0.09-0.01,0.18-0.01,0.28s0.01,0.18,0.01,0.28
		c0,0.09-0.01,0.18-0.01,0.28c0,0.09,0.01,0.18,0.01,0.28c0,0.09-0.01,0.18-0.01,0.28c0,0.09,0.01,0.18,0.01,0.28
		c0,0.09-0.01,0.18-0.01,0.28s0.01,0.18,0.01,0.28c0,0.09-0.01,0.18-0.01,0.28c0,0.09,0.01,0.18,0.01,0.28s-0.01,0.18-0.01,0.28
		c0,0.09,0.01,0.18,0.01,0.28c0,0.09-0.01,0.18-0.01,0.28s0.01,0.18,0.01,0.28c0,0.09-0.01,0.18-0.01,0.28
		c0,0.09,0.01,0.18,0.01,0.28c0,0.09-0.01,0.18-0.01,0.28c0,0.09,0.01,0.18,0.01,0.28c0,0.09-0.01,0.18-0.01,0.28
		s0.01,0.18,0.01,0.28c0,0.09-0.01,0.18-0.01,0.28c0,0.09,0.01,0.18,0.01,0.28s-0.01,0.18-0.01,0.28c0,0.09,0.01,0.18,0.01,0.28
		c0,0.09-0.01,0.18-0.01,0.28s0.01,0.18,0.01,0.28c0,0.09-0.01,0.18-0.01,0.28c0,0.09,0.01,0.18,0.01,0.28
		c0,0.09-0.01,0.18-0.01,0.28c0,0.09,0.01,0.18,0.01,0.28c0,0.09-0.01,0.18-0.01,0.28c0,46.7,11.34,88.62,34.01,125.75
		c22.69,37.15,54.05,66.16,94.08,87.06c40.02,20.9,85.16,31.36,135.43,31.36c50.25,0,95.38-10.46,135.42-31.36
		c40.02-20.9,71.38-49.92,94.05-87.06c22.69-37.12,34.03-79.05,34.03-125.75c0-0.09-0.01-0.18-0.01-0.28c0-0.09,0.01-0.18,0.01-0.28
		c0-0.09-0.01-0.18-0.01-0.28c0-0.09,0.01-0.18,0.01-0.28c0-0.09-0.01-0.18-0.01-0.28c0-0.09,0.01-0.18,0.01-0.28
		s-0.01-0.18-0.01-0.28c0-0.09,0.01-0.18,0.01-0.28c0-0.09-0.01-0.18-0.01-0.28s0.01-0.18,0.01-0.28c0-0.09-0.01-0.18-0.01-0.28
		c0-0.09,0.01-0.18,0.01-0.28s-0.01-0.18-0.01-0.28c0-0.09,0.01-0.18,0.01-0.28c0-0.09-0.01-0.18-0.01-0.28
		c0-0.09,0.01-0.18,0.01-0.28c0-0.09-0.01-0.18-0.01-0.28c0-0.09,0.01-0.18,0.01-0.28s-0.01-0.18-0.01-0.28
		c0-0.09,0.01-0.18,0.01-0.28c0-0.09-0.01-0.18-0.01-0.28s0.01-0.18,0.01-0.28c0-0.09-0.01-0.18-0.01-0.28
		c0-0.09,0.01-0.18,0.01-0.28s-0.01-0.18-0.01-0.28c0-0.09,0.01-0.18,0.01-0.28c0-0.09-0.01-0.18-0.01-0.28
		c0-0.09,0.01-0.18,0.01-0.28c0-0.09-0.01-0.18-0.01-0.28c0-0.09,0.01-0.18,0.01-0.28s-0.01-0.18-0.01-0.28
		c0-0.09,0.01-0.18,0.01-0.28c0-0.09-0.01-0.18-0.01-0.28s0.01-0.18,0.01-0.28c0-0.09-0.01-0.18-0.01-0.28
		c0-0.09,0.01-0.18,0.01-0.28s-0.01-0.18-0.01-0.28c0-0.09,0.01-0.18,0.01-0.28c0-0.09-0.01-0.18-0.01-0.28s0.01-0.18,0.01-0.28
		c0-0.09-0.01-0.18-0.01-0.28c0-0.09,0.01-0.18,0.01-0.28s-0.01-0.18-0.01-0.28c0-0.09,0.01-0.18,0.01-0.28
		c0-0.09-0.01-0.18-0.01-0.28s0.01-0.18,0.01-0.28c0-0.09-0.01-0.18-0.01-0.28c0-0.09,0.01-0.18,0.01-0.28s-0.01-0.18-0.01-0.28
		c0-0.09,0.01-0.18,0.01-0.28c0-0.09-0.01-0.18-0.01-0.28s0.01-0.18,0.01-0.28c0-0.09-0.01-0.18-0.01-0.28
		c0-0.09,0.01-0.18,0.01-0.28s-0.01-0.18-0.01-0.28c0-0.09,0.01-0.18,0.01-0.28c0-0.09-0.01-0.18-0.01-0.28s0.01-0.18,0.01-0.28
		c0-0.09-0.01-0.18-0.01-0.28c0-0.09,0.01-0.18,0.01-0.28c0-0.09-0.01-0.18-0.01-0.28c0-0.09,0.01-0.18,0.01-0.28
		c0-0.09-0.01-0.18-0.01-0.28s0.01-0.18,0.01-0.28c0-0.09-0.01-0.18-0.01-0.28c0-0.09,0.01-0.18,0.01-0.28s-0.01-0.18-0.01-0.28
		c0-0.09,0.01-0.18,0.01-0.28c0-0.09-0.01-0.18-0.01-0.28s0.01-0.18,0.01-0.28c0-0.09-0.01-0.18-0.01-0.28
		c0-0.09,0.01-0.18,0.01-0.28c0-0.09-0.01-0.18-0.01-0.28c0-0.09,0.01-0.18,0.01-0.28c0-0.09-0.01-0.18-0.01-0.28
		s0.01-0.18,0.01-0.28c0-0.09-0.01-0.18-0.01-0.28c0-0.09,0.01-0.18,0.01-0.28s-0.01-0.18-0.01-0.28c0-0.09,0.01-0.18,0.01-0.28
		c0-0.09-0.01-0.18-0.01-0.28s0.01-0.18,0.01-0.28c0-0.09-0.01-0.18-0.01-0.28c0-0.09,0.01-0.18,0.01-0.28
		c0-0.09-0.01-0.18-0.01-0.28c0-0.09,0.01-0.18,0.01-0.28c0-0.09-0.01-0.18-0.01-0.28s0.01-0.18,0.01-0.28
		c0-0.09-0.01-0.18-0.01-0.28c0-0.09,0.01-0.18,0.01-0.28c0-0.09-0.01-0.18-0.01-0.28c0-0.09,0.01-0.18,0.01-0.28
		c0-0.09-0.01-0.18-0.01-0.28s0.01-0.18,0.01-0.28c0-0.09-0.01-0.18-0.01-0.28c0-0.09,0.01-0.18,0.01-0.28
		c0-0.09-0.01-0.18-0.01-0.28c0-0.09,0.01-0.18,0.01-0.28c0-0.09-0.01-0.18-0.01-0.28c0-0.09,0.01-0.18,0.01-0.28
		c0-0.09-0.01-0.18-0.01-0.28c0-0.09,0.01-0.18,0.01-0.28c0-0.09-0.01-0.18-0.01-0.28c0-0.09,0.01-0.18,0.01-0.28
		c0-0.09-0.01-0.18-0.01-0.28c0-0.09,0.01-0.18,0.01-0.28c0-0.09-0.01-0.18-0.01-0.28c0-0.09,0.01-0.18,0.01-0.28
		c0-0.09-0.01-0.18-0.01-0.28c0-0.09,0.01-0.18,0.01-0.28c0-0.09-0.01-0.18-0.01-0.28c0-0.09,0.01-0.18,0.01-0.28
		c0-0.09-0.01-0.18-0.01-0.28c0-0.09,0.01-0.18,0.01-0.28c0-0.09-0.01-0.18-0.01-0.28c0-0.09,0.01-0.18,0.01-0.28
		c0-0.09-0.01-0.18-0.01-0.28c0-0.09,0.01-0.18,0.01-0.28c0-0.09-0.01-0.18-0.01-0.28c0-0.09,0.01-0.18,0.01-0.28
		c0-0.09-0.01-0.18-0.01-0.28c0-0.09,0.01-0.18,0.01-0.28c0-0.09-0.01-0.18-0.01-0.28c0-0.09,0.01-0.18,0.01-0.28
		c0-0.09-0.01-0.18-0.01-0.28c0-0.09,0.01-0.18,0.01-0.28c0-0.09-0.01-0.18-0.01-0.28c0-0.09,0.01-0.18,0.01-0.28
		c0-0.09-0.01-0.18-0.01-0.28c0-0.09,0.01-0.18,0.01-0.28s-0.01-0.18-0.01-0.28c0-0.09,0.01-0.18,0.01-0.28
		c0-0.09-0.01-0.18-0.01-0.28c0-0.09,0.01-0.18,0.01-0.28c0-0.09-0.01-0.18-0.01-0.28c0-0.09,0.01-0.18,0.01-0.28
		s-0.01-0.18-0.01-0.28c0-0.09,0.01-0.18,0.01-0.28c0-0.09-0.01-0.18-0.01-0.28s0.01-0.18,0.01-0.28c0-0.09-0.01-0.18-0.01-0.28
		c0-0.09,0.01-0.18,0.01-0.28s-0.01-0.18-0.01-0.28c0-0.09,0.01-0.18,0.01-0.28c0-0.09-0.01-0.18-0.01-0.28
		c0-0.09,0.01-0.18,0.01-0.28c0-0.09-0.01-0.18-0.01-0.28c0-0.09,0.01-0.18,0.01-0.28s-0.01-0.18-0.01-0.28
		c0-0.09,0.01-0.18,0.01-0.28c0-0.09-0.01-0.18-0.01-0.28s0.01-0.18,0.01-0.28c0-0.09-0.01-0.18-0.01-0.28
		c0-0.09,0.01-0.18,0.01-0.28s-0.01-0.18-0.01-0.28c0-0.09,0.01-0.18,0.01-0.28c0-0.09-0.01-0.18-0.01-0.28
		c0-0.09,0.01-0.18,0.01-0.28c0-0.09-0.01-0.18-0.01-0.28c0-0.09,0.01-0.18,0.01-0.28s-0.01-0.18-0.01-0.28
		c0-0.09,0.01-0.18,0.01-0.28c0-0.09-0.01-0.18-0.01-0.28s0.01-0.18,0.01-0.28c0-0.09-0.01-0.18-0.01-0.28
		c0-0.09,0.01-0.18,0.01-0.28s-0.01-0.18-0.01-0.28c0-0.09,0.01-0.18,0.01-0.28c0-0.09-0.01-0.18-0.01-0.28s0.01-0.18,0.01-0.28
		c0-0.09-0.01-0.18-0.01-0.28c0-0.09,0.01-0.18,0.01-0.28s-0.01-0.18-0.01-0.28c0-0.09,0.01-0.18,0.01-0.28
		c0-0.09-0.01-0.18-0.01-0.28s0.01-0.18,0.01-0.28c0-0.09-0.01-0.18-0.01-0.28c0-0.09,0.01-0.18,0.01-0.28s-0.01-0.18-0.01-0.28
		c0-0.09,0.01-0.18,0.01-0.28c0-0.09-0.01-0.18-0.01-0.28s0.01-0.18,0.01-0.28c0-0.09-0.01-0.18-0.01-0.28
		c0-0.09,0.01-0.18,0.01-0.28s-0.01-0.18-0.01-0.28c0-0.09,0.01-0.18,0.01-0.28c0-0.09-0.01-0.18-0.01-0.28s0.01-0.18,0.01-0.28
		c0-0.09-0.01-0.18-0.01-0.28c0-0.09,0.01-0.18,0.01-0.28c0-0.09-0.01-0.18-0.01-0.28c0-0.09,0.01-0.18,0.01-0.28
		c0-0.09-0.01-0.18-0.01-0.28s0.01-0.18,0.01-0.28c0-0.09-0.01-0.18-0.01-0.28c0-0.09,0.01-0.18,0.01-0.28s-0.01-0.18-0.01-0.28
		c0-0.09,0.01-0.18,0.01-0.28c0-0.09-0.01-0.18-0.01-0.28s0.01-0.18,0.01-0.28c0-0.09-0.01-0.18-0.01-0.28
		c0-0.09,0.01-0.18,0.01-0.28c0-0.09-0.01-0.18-0.01-0.28c0-0.09,0.01-0.18,0.01-0.28c0-0.09-0.01-0.18-0.01-0.28
		s0.01-0.18,0.01-0.28c0-0.09-0.01-0.18-0.01-0.28c0-0.09,0.01-0.18,0.01-0.28s-0.01-0.18-0.01-0.28c0-0.09,0.01-0.18,0.01-0.28
		c0-0.09-0.01-0.18-0.01-0.28s0.01-0.18,0.01-0.28c0-0.09-0.01-0.18-0.01-0.28c0-0.09,0.01-0.18,0.01-0.28
		c0-0.09-0.01-0.18-0.01-0.28c0-0.09,0.01-0.18,0.01-0.28c0-0.09-0.01-0.18-0.01-0.28s0.01-0.18,0.01-0.28
		c0-0.09-0.01-0.18-0.01-0.28c0-0.09,0.01-0.18,0.01-0.28c0-0.09-0.01-0.18-0.01-0.28c0-0.09,0.01-0.18,0.01-0.28
		c0-0.09-0.01-0.18-0.01-0.28s0.01-0.18,0.01-0.28c0-0.09-0.01-0.18-0.01-0.28c0-0.09,0.01-0.18,0.01-0.28
		c0-0.09-0.01-0.18-0.01-0.28c0-0.09,0.01-0.18,0.01-0.28c0-0.09-0.01-0.18-0.01-0.28c0-0.09,0.01-0.18,0.01-0.28
		c0-0.09-0.01-0.18-0.01-0.28c0-0.09,0.01-0.18,0.01-0.28c0-0.09-0.01-0.18-0.01-0.28c0-0.09,0.01-0.18,0.01-0.28
		c0-0.09-0.01-0.18-0.01-0.28s0.01-0.18,0.01-0.28c0-0.09-0.01-0.18-0.01-0.28c0-0.09,0.01-0.18,0.01-0.28
		C1920,524.19,1919.99,524.1,1919.99,524z M1565.75,585.43c-4.63-8.71-8.1-18.17-10.43-28.35c2.33-10.18,5.8-19.64,10.43-28.35
		c9.34-17.57,21.9-31.13,37.7-40.7c15.78-9.57,33.45-14.34,53.04-14.34c19.54,0,37.24,4.78,53.03,14.34
		c15.77,9.57,28.34,23.13,37.68,40.7c4.64,8.71,8.11,18.17,10.45,28.35c-0.01,0.02-0.01,0.04-0.02,0.06
		c-2.34,10.16-5.8,19.6-10.43,28.29c-9.34,17.58-21.91,31.13-37.68,40.7c-15.79,9.57-33.49,14.34-53.03,14.34
		c-19.59,0-37.27-4.78-53.04-14.34C1587.65,616.56,1575.09,603.01,1565.75,585.43z"/>
	<polygon points="1302.1,549.21 1440.33,356.94 1439.93,356.94 1440.33,356.38 1439.93,356.38 1440.33,355.83 1439.93,355.83 
		1440.33,355.27 1439.93,355.27 1440.33,354.72 1439.93,354.72 1440.33,354.16 1439.93,354.16 1440.33,353.6 1439.93,353.6 
		1440.33,353.05 1439.93,353.05 1440.33,352.49 1439.93,352.49 1440.33,351.94 1439.93,351.94 1440.33,351.38 1439.93,351.38 
		1440.33,350.82 1439.93,350.82 1440.33,350.27 1439.93,350.27 1440.33,349.71 1439.93,349.71 1440.33,349.16 1439.93,349.16 
		1440.33,348.6 1439.93,348.6 1440.33,348.04 1439.93,348.04 1440.33,347.49 1439.93,347.49 1440.33,346.93 1439.93,346.93 
		1440.33,346.38 1439.93,346.38 1440.33,345.82 1439.93,345.82 1440.33,345.26 1439.93,345.26 1440.33,344.71 1439.93,344.71 
		1440.33,344.15 1439.93,344.15 1440.33,343.6 1439.93,343.6 1440.33,343.04 1439.93,343.04 1440.33,342.48 1439.93,342.48 
		1440.33,341.93 1439.93,341.93 1440.33,341.37 1439.93,341.37 1440.33,340.82 1439.93,340.82 1440.33,340.26 1439.93,340.26 
		1440.33,339.7 1439.93,339.7 1440.33,339.15 1439.93,339.15 1440.33,338.59 1439.93,338.59 1440.33,338.04 1439.93,338.04 
		1440.33,337.48 1439.93,337.48 1440.33,336.92 1439.93,336.92 1440.33,336.37 1439.93,336.37 1440.33,335.81 1439.93,335.81 
		1440.33,335.26 1439.93,335.26 1440.33,334.7 1439.93,334.7 1440.33,334.15 1439.93,334.15 1440.33,333.59 1439.93,333.59 
		1440.33,333.03 1439.93,333.03 1440.33,332.48 1439.93,332.48 1440.33,331.92 1439.93,331.92 1440.33,331.37 1439.93,331.37 
		1440.33,330.81 1439.93,330.81 1440.33,330.25 1439.93,330.25 1440.33,329.7 1439.93,329.7 1440.33,329.14 1439.93,329.14 
		1440.33,328.59 1439.93,328.59 1440.33,328.03 1439.93,328.03 1440.33,327.47 1439.93,327.47 1440.33,326.92 1439.93,326.92 
		1440.33,326.36 1439.93,326.36 1440.33,325.81 1439.93,325.81 1440.33,325.25 1439.93,325.25 1440.33,324.69 1439.93,324.69 
		1440.33,324.14 1439.93,324.14 1440.33,323.58 1439.93,323.58 1440.33,323.03 1439.93,323.03 1440.33,322.47 1439.93,322.47 
		1440.33,321.91 1439.93,321.91 1440.33,321.36 1439.93,321.36 1440.33,320.8 1439.93,320.8 1440.33,320.25 1439.93,320.25 
		1440.33,319.69 1439.93,319.69 1440.33,319.14 1439.93,319.14 1440.33,318.58 1439.93,318.58 1440.33,318.02 1439.93,318.02 
		1440.33,317.47 1439.93,317.47 1440.33,316.91 1439.93,316.91 1440.33,316.36 1439.93,316.36 1440.33,315.8 1439.93,315.8 
		1440.33,315.24 1439.93,315.24 1440.33,314.69 1439.93,314.69 1440.33,314.13 1439.93,314.13 1440.33,313.58 1439.93,313.58 
		1440.33,313.02 1439.93,313.02 1440.33,312.46 1439.93,312.46 1440.33,311.91 1439.93,311.91 1440.33,311.35 1439.93,311.35 
		1440.33,310.8 1439.93,310.8 1440.33,310.24 1439.93,310.24 1440.33,309.68 1439.93,309.68 1440.33,309.13 1439.93,309.13 
		1440.33,308.57 1439.93,308.57 1440.33,308.02 1439.93,308.02 1440.33,307.46 1439.93,307.46 1440.33,306.9 1439.93,306.9 
		1440.33,306.35 1439.93,306.35 1440.33,305.79 1439.93,305.79 1440.33,305.24 1439.93,305.24 1440.33,304.68 1439.93,304.68 
		1440.33,304.12 1439.93,304.12 1440.33,303.57 1439.93,303.57 1440.33,303.01 1439.93,303.01 1440.33,302.46 1439.93,302.46 
		1440.33,301.9 1439.93,301.9 1440.33,301.34 1439.93,301.34 1440.33,300.79 1439.93,300.79 1440.33,300.23 1439.93,300.23 
		1440.33,299.68 1439.93,299.68 1440.33,299.12 1439.93,299.12 1440.33,298.56 1439.93,298.56 1440.33,298.01 1439.93,298.01 
		1440.33,297.45 1439.93,297.45 1440.33,296.9 1439.93,296.9 1440.33,296.34 1439.93,296.34 1440.33,295.79 1439.93,295.79 
		1440.33,295.23 1439.93,295.23 1440.33,294.67 1439.93,294.67 1440.33,294.12 1439.93,294.12 1440.33,293.56 1439.93,293.56 
		1440.33,293.01 1439.93,293.01 1440.33,292.45 1439.93,292.45 1440.33,291.89 1439.93,291.89 1440.33,291.34 1439.93,291.34 
		1440.33,290.78 1439.93,290.78 1440.33,290.23 1270.88,290.23 1193.49,407.64 1114.1,290.23 937.31,290.23 937.71,290.78 
		937.31,290.78 937.71,291.34 937.31,291.34 937.71,291.89 937.31,291.89 937.71,292.45 937.31,292.45 937.71,293.01 937.31,293.01 
		937.71,293.56 937.31,293.56 937.71,294.12 937.31,294.12 937.71,294.67 937.31,294.67 937.71,295.23 937.31,295.23 937.71,295.79 
		937.31,295.79 937.71,296.34 937.31,296.34 937.71,296.9 937.31,296.9 937.71,297.45 937.31,297.45 937.71,298.01 937.31,298.01 
		937.71,298.56 937.31,298.56 937.71,299.12 937.31,299.12 937.71,299.68 937.31,299.68 937.71,300.23 937.31,300.23 937.71,300.79 
		937.31,300.79 937.71,301.34 937.31,301.34 937.71,301.9 937.31,301.9 937.71,302.46 937.31,302.46 937.71,303.01 937.31,303.01 
		937.71,303.57 937.31,303.57 937.71,304.12 937.31,304.12 937.71,304.68 937.31,304.68 937.71,305.24 937.31,305.24 937.71,305.79 
		937.31,305.79 937.71,306.35 937.31,306.35 937.71,306.9 937.31,306.9 937.71,307.46 937.31,307.46 937.71,308.02 937.31,308.02 
		937.71,308.57 937.31,308.57 937.71,309.13 937.31,309.13 937.71,309.68 937.31,309.68 937.71,310.24 937.31,310.24 937.71,310.8 
		937.31,310.8 937.71,311.35 937.31,311.35 937.71,311.91 937.31,311.91 937.71,312.46 937.31,312.46 937.71,313.02 937.31,313.02 
		937.71,313.58 937.31,313.58 937.71,314.13 937.31,314.13 937.71,314.69 937.31,314.69 937.71,315.24 937.31,315.24 937.71,315.8 
		937.31,315.8 937.71,316.36 937.31,316.36 937.71,316.91 937.31,316.91 937.71,317.47 937.31,317.47 937.71,318.02 937.31,318.02 
		937.71,318.58 937.31,318.58 937.71,319.14 937.31,319.14 937.71,319.69 937.31,319.69 937.71,320.25 937.31,320.25 937.71,320.8 
		937.31,320.8 937.71,321.36 937.31,321.36 937.71,321.91 937.31,321.91 937.71,322.47 937.31,322.47 937.71,323.03 937.31,323.03 
		937.71,323.58 937.31,323.58 937.71,324.14 937.31,324.14 937.71,324.69 937.31,324.69 937.71,325.25 937.31,325.25 937.71,325.81 
		937.31,325.81 937.71,326.36 937.31,326.36 937.71,326.92 937.31,326.92 937.71,327.47 937.31,327.47 937.71,328.03 937.31,328.03 
		937.71,328.59 937.31,328.59 937.71,329.14 937.31,329.14 937.71,329.7 937.31,329.7 937.71,330.25 937.31,330.25 937.71,330.81 
		937.31,330.81 937.71,331.37 937.31,331.37 937.71,331.92 937.31,331.92 937.71,332.48 937.31,332.48 937.71,333.03 937.31,333.03 
		937.71,333.59 937.31,333.59 937.71,334.15 937.31,334.15 937.71,334.7 937.31,334.7 937.71,335.26 937.31,335.26 937.71,335.81 
		937.31,335.81 937.71,336.37 937.31,336.37 937.71,336.92 937.31,336.92 937.71,337.48 937.31,337.48 937.71,338.04 937.31,338.04 
		937.71,338.59 937.31,338.59 937.71,339.15 937.31,339.15 937.71,339.7 937.31,339.7 937.71,340.26 937.31,340.26 937.71,340.82 
		937.31,340.82 937.71,341.37 937.31,341.37 937.71,341.93 937.31,341.93 937.71,342.48 937.31,342.48 937.71,343.04 937.31,343.04 
		937.71,343.6 937.31,343.6 937.71,344.15 937.31,344.15 937.71,344.71 937.31,344.71 937.71,345.26 937.31,345.26 937.71,345.82 
		937.31,345.82 937.71,346.38 937.31,346.38 937.71,346.93 937.31,346.93 937.71,347.49 937.31,347.49 937.71,348.04 937.31,348.04 
		937.71,348.6 937.31,348.6 937.71,349.16 937.31,349.16 937.71,349.71 937.31,349.71 937.71,350.27 937.31,350.27 937.71,350.82 
		937.31,350.82 937.71,351.38 937.31,351.38 937.71,351.94 937.31,351.94 937.71,352.49 937.31,352.49 937.71,353.05 937.31,353.05 
		937.71,353.6 937.31,353.6 937.71,354.16 937.31,354.16 937.71,354.72 937.31,354.72 937.71,355.27 937.31,355.27 937.71,355.83 
		937.31,355.83 937.71,356.38 937.31,356.38 937.71,356.94 937.31,356.94 1076.42,554.75 931.31,757.22 931.71,757.22 
		931.31,757.77 931.71,757.77 931.31,758.33 931.71,758.33 931.31,758.88 931.71,758.88 931.31,759.44 931.71,759.44 931.31,760 
		931.71,760 931.31,760.55 931.71,760.55 931.31,761.11 931.71,761.11 931.31,761.66 931.71,761.66 931.31,762.22 931.71,762.22 
		931.31,762.78 931.71,762.78 931.31,763.33 931.71,763.33 931.31,763.89 931.71,763.89 931.31,764.44 931.71,764.44 931.31,765 
		931.71,765 931.31,765.56 931.71,765.56 931.31,766.11 931.71,766.11 931.31,766.67 931.71,766.67 931.31,767.22 931.71,767.22 
		931.31,767.78 931.71,767.78 931.31,768.33 931.71,768.33 931.31,768.89 931.71,768.89 931.31,769.45 931.71,769.45 931.31,770 
		931.71,770 931.31,770.56 931.71,770.56 931.31,771.11 931.71,771.11 931.31,771.67 931.71,771.67 931.31,772.23 931.71,772.23 
		931.31,772.78 931.71,772.78 931.31,773.34 931.71,773.34 931.31,773.89 931.71,773.89 931.31,774.45 931.71,774.45 931.31,775.01 
		931.71,775.01 931.31,775.56 931.71,775.56 931.31,776.12 931.71,776.12 931.31,776.67 931.71,776.67 931.31,777.23 931.71,777.23 
		931.31,777.79 931.71,777.79 931.31,778.34 931.71,778.34 931.31,778.9 931.71,778.9 931.31,779.45 931.71,779.45 931.31,780.01 
		931.71,780.01 931.31,780.57 931.71,780.57 931.31,781.12 931.71,781.12 931.31,781.68 931.71,781.68 931.31,782.23 931.71,782.23 
		931.31,782.79 931.71,782.79 931.31,783.35 931.71,783.35 931.31,783.9 931.71,783.9 931.31,784.46 931.71,784.46 931.31,785.01 
		931.71,785.01 931.31,785.57 931.71,785.57 931.31,786.13 931.71,786.13 931.31,786.68 931.71,786.68 931.31,787.24 931.71,787.24 
		931.31,787.79 931.71,787.79 931.31,788.35 931.71,788.35 931.31,788.91 931.71,788.91 931.31,789.46 931.71,789.46 931.31,790.02 
		931.71,790.02 931.31,790.57 931.71,790.57 931.31,791.13 931.71,791.13 931.31,791.68 931.71,791.68 931.31,792.24 931.71,792.24 
		931.31,792.8 931.71,792.8 931.31,793.35 931.71,793.35 931.31,793.91 931.71,793.91 931.31,794.46 931.71,794.46 931.31,795.02 
		931.71,795.02 931.31,795.58 931.71,795.58 931.31,796.13 931.71,796.13 931.31,796.69 931.71,796.69 931.31,797.24 931.71,797.24 
		931.31,797.8 931.71,797.8 931.31,798.36 931.71,798.36 931.31,798.91 931.71,798.91 931.31,799.47 931.71,799.47 931.31,800.02 
		931.71,800.02 931.31,800.58 931.71,800.58 931.31,801.14 931.71,801.14 931.31,801.69 931.71,801.69 931.31,802.25 931.71,802.25 
		931.31,802.8 931.71,802.8 931.31,803.36 931.71,803.36 931.31,803.92 931.71,803.92 931.31,804.47 931.71,804.47 931.31,805.03 
		931.71,805.03 931.31,805.58 931.71,805.58 931.31,806.14 931.71,806.14 931.31,806.7 931.71,806.7 931.31,807.25 931.71,807.25 
		931.31,807.81 931.71,807.81 931.31,808.36 931.71,808.36 931.31,808.92 931.71,808.92 931.31,809.47 931.71,809.47 931.31,810.03 
		931.71,810.03 931.31,810.59 931.71,810.59 931.31,811.14 931.71,811.14 931.31,811.7 931.71,811.7 931.31,812.25 931.71,812.25 
		931.31,812.81 931.71,812.81 931.31,813.37 931.71,813.37 931.31,813.92 931.71,813.92 931.31,814.48 931.71,814.48 931.31,815.03 
		931.71,815.03 931.31,815.59 931.71,815.59 931.31,816.15 931.71,816.15 931.31,816.7 931.71,816.7 931.31,817.26 931.71,817.26 
		931.31,817.81 931.71,817.81 931.31,818.37 931.71,818.37 931.31,818.93 931.71,818.93 931.31,819.48 931.71,819.48 931.31,820.04 
		931.71,820.04 931.31,820.59 931.71,820.59 931.31,821.15 931.71,821.15 931.31,821.71 931.71,821.71 931.31,822.26 931.71,822.26 
		931.31,822.82 931.71,822.82 931.31,823.37 931.71,823.37 931.31,823.93 1110.77,823.93 1189.49,699.17 1270.21,823.93 
		1450.34,823.93 1449.94,823.37 1450.34,823.37 1449.94,822.82 1450.34,822.82 1449.94,822.26 1450.34,822.26 1449.94,821.71 
		1450.34,821.71 1449.94,821.15 1450.34,821.15 1449.94,820.59 1450.34,820.59 1449.94,820.04 1450.34,820.04 1449.94,819.48 
		1450.34,819.48 1449.94,818.93 1450.34,818.93 1449.94,818.37 1450.34,818.37 1449.94,817.81 1450.34,817.81 1449.94,817.26 
		1450.34,817.26 1449.94,816.7 1450.34,816.7 1449.94,816.15 1450.34,816.15 1449.94,815.59 1450.34,815.59 1449.94,815.03 
		1450.34,815.03 1449.94,814.48 1450.34,814.48 1449.94,813.92 1450.34,813.92 1449.94,813.37 1450.34,813.37 1449.94,812.81 
		1450.34,812.81 1449.94,812.25 1450.34,812.25 1449.94,811.7 1450.34,811.7 1449.94,811.14 1450.34,811.14 1449.94,810.59 
		1450.34,810.59 1449.94,810.03 1450.34,810.03 1449.94,809.47 1450.34,809.47 1449.94,808.92 1450.34,808.92 1449.94,808.36 
		1450.34,808.36 1449.94,807.81 1450.34,807.81 1449.94,807.25 1450.34,807.25 1449.94,806.7 1450.34,806.7 1449.94,806.14 
		1450.34,806.14 1449.94,805.58 1450.34,805.58 1449.94,805.03 1450.34,805.03 1449.94,804.47 1450.34,804.47 1449.94,803.92 
		1450.34,803.92 1449.94,803.36 1450.34,803.36 1449.94,802.8 1450.34,802.8 1449.94,802.25 1450.34,802.25 1449.94,801.69 
		1450.34,801.69 1449.94,801.14 1450.34,801.14 1449.94,800.58 1450.34,800.58 1449.94,800.02 1450.34,800.02 1449.94,799.47 
		1450.34,799.47 1449.94,798.91 1450.34,798.91 1449.94,798.36 1450.34,798.36 1449.94,797.8 1450.34,797.8 1449.94,797.24 
		1450.34,797.24 1449.94,796.69 1450.34,796.69 1449.94,796.13 1450.34,796.13 1449.94,795.58 1450.34,795.58 1449.94,795.02 
		1450.34,795.02 1449.94,794.46 1450.34,794.46 1449.94,793.91 1450.34,793.91 1449.94,793.35 1450.34,793.35 1449.94,792.8 
		1450.34,792.8 1449.94,792.24 1450.34,792.24 1449.94,791.68 1450.34,791.68 1449.94,791.13 1450.34,791.13 1449.94,790.57 
		1450.34,790.57 1449.94,790.02 1450.34,790.02 1449.94,789.46 1450.34,789.46 1449.94,788.91 1450.34,788.91 1449.94,788.35 
		1450.34,788.35 1449.94,787.79 1450.34,787.79 1449.94,787.24 1450.34,787.24 1449.94,786.68 1450.34,786.68 1449.94,786.13 
		1450.34,786.13 1449.94,785.57 1450.34,785.57 1449.94,785.01 1450.34,785.01 1449.94,784.46 1450.34,784.46 1449.94,783.9 
		1450.34,783.9 1449.94,783.35 1450.34,783.35 1449.94,782.79 1450.34,782.79 1449.94,782.23 1450.34,782.23 1449.94,781.68 
		1450.34,781.68 1449.94,781.12 1450.34,781.12 1449.94,780.57 1450.34,780.57 1449.94,780.01 1450.34,780.01 1449.94,779.45 
		1450.34,779.45 1449.94,778.9 1450.34,778.9 1449.94,778.34 1450.34,778.34 1449.94,777.79 1450.34,777.79 1449.94,777.23 
		1450.34,777.23 1449.94,776.67 1450.34,776.67 1449.94,776.12 1450.34,776.12 1449.94,775.56 1450.34,775.56 1449.94,775.01 
		1450.34,775.01 1449.94,774.45 1450.34,774.45 1449.94,773.89 1450.34,773.89 1449.94,773.34 1450.34,773.34 1449.94,772.78 
		1450.34,772.78 1449.94,772.23 1450.34,772.23 1449.94,771.67 1450.34,771.67 1449.94,771.11 1450.34,771.11 1449.94,770.56 
		1450.34,770.56 1449.94,770 1450.34,770 1449.94,769.45 1450.34,769.45 1449.94,768.89 1450.34,768.89 1449.94,768.33 
		1450.34,768.33 1449.94,767.78 1450.34,767.78 1449.94,767.22 1450.34,767.22 1449.94,766.67 1450.34,766.67 1449.94,766.11 
		1450.34,766.11 1449.94,765.56 1450.34,765.56 1449.94,765 1450.34,765 1449.94,764.44 1450.34,764.44 1449.94,763.89 
		1450.34,763.89 1449.94,763.33 1450.34,763.33 1449.94,762.78 1450.34,762.78 1449.94,762.22 1450.34,762.22 1449.94,761.66 
		1450.34,761.66 1449.94,761.11 1450.34,761.11 1449.94,760.55 1450.34,760.55 1449.94,760 1450.34,760 1449.94,759.44 
		1450.34,759.44 1449.94,758.88 1450.34,758.88 1449.94,758.33 1450.34,758.33 1449.94,757.77 1450.34,757.77 1449.94,757.22 
		1450.34,757.22 	"/>
	<polygon points="370.83,549.17 509.06,356.9 508.66,356.9 509.06,356.34 508.66,356.34 509.06,355.78 508.66,355.78 509.06,355.23 
		508.66,355.23 509.06,354.67 508.66,354.67 509.06,354.12 508.66,354.12 509.06,353.56 508.66,353.56 509.06,353 508.66,353 
		509.06,352.45 508.66,352.45 509.06,351.89 508.66,351.89 509.06,351.34 508.66,351.34 509.06,350.78 508.66,350.78 509.06,350.22 
		508.66,350.22 509.06,349.67 508.66,349.67 509.06,349.11 508.66,349.11 509.06,348.56 508.66,348.56 509.06,348 508.66,348 
		509.06,347.44 508.66,347.44 509.06,346.89 508.66,346.89 509.06,346.33 508.66,346.33 509.06,345.78 508.66,345.78 509.06,345.22 
		508.66,345.22 509.06,344.66 508.66,344.66 509.06,344.11 508.66,344.11 509.06,343.55 508.66,343.55 509.06,343 508.66,343 
		509.06,342.44 508.66,342.44 509.06,341.88 508.66,341.88 509.06,341.33 508.66,341.33 509.06,340.77 508.66,340.77 509.06,340.22 
		508.66,340.22 509.06,339.66 508.66,339.66 509.06,339.1 508.66,339.1 509.06,338.55 508.66,338.55 509.06,337.99 508.66,337.99 
		509.06,337.44 508.66,337.44 509.06,336.88 508.66,336.88 509.06,336.32 508.66,336.32 509.06,335.77 508.66,335.77 509.06,335.21 
		508.66,335.21 509.06,334.66 508.66,334.66 509.06,334.1 508.66,334.1 509.06,333.55 508.66,333.55 509.06,332.99 508.66,332.99 
		509.06,332.43 508.66,332.43 509.06,331.88 508.66,331.88 509.06,331.32 508.66,331.32 509.06,330.77 508.66,330.77 509.06,330.21 
		508.66,330.21 509.06,329.65 508.66,329.65 509.06,329.1 508.66,329.1 509.06,328.54 508.66,328.54 509.06,327.99 508.66,327.99 
		509.06,327.43 508.66,327.43 509.06,326.87 508.66,326.87 509.06,326.32 508.66,326.32 509.06,325.76 508.66,325.76 509.06,325.21 
		508.66,325.21 509.06,324.65 508.66,324.65 509.06,324.09 508.66,324.09 509.06,323.54 508.66,323.54 509.06,322.98 508.66,322.98 
		509.06,322.43 508.66,322.43 509.06,321.87 508.66,321.87 509.06,321.31 508.66,321.31 509.06,320.76 508.66,320.76 509.06,320.2 
		508.66,320.2 509.06,319.65 508.66,319.65 509.06,319.09 508.66,319.09 509.06,318.54 508.66,318.54 509.06,317.98 508.66,317.98 
		509.06,317.42 508.66,317.42 509.06,316.87 508.66,316.87 509.06,316.31 508.66,316.31 509.06,315.76 508.66,315.76 509.06,315.2 
		508.66,315.2 509.06,314.64 508.66,314.64 509.06,314.09 508.66,314.09 509.06,313.53 508.66,313.53 509.06,312.98 508.66,312.98 
		509.06,312.42 508.66,312.42 509.06,311.86 508.66,311.86 509.06,311.31 508.66,311.31 509.06,310.75 508.66,310.75 509.06,310.2 
		508.66,310.2 509.06,309.64 508.66,309.64 509.06,309.08 508.66,309.08 509.06,308.53 508.66,308.53 509.06,307.97 508.66,307.97 
		509.06,307.42 508.66,307.42 509.06,306.86 508.66,306.86 509.06,306.3 508.66,306.3 509.06,305.75 508.66,305.75 509.06,305.19 
		508.66,305.19 509.06,304.64 508.66,304.64 509.06,304.08 508.66,304.08 509.06,303.52 508.66,303.52 509.06,302.97 508.66,302.97 
		509.06,302.41 508.66,302.41 509.06,301.86 508.66,301.86 509.06,301.3 508.66,301.3 509.06,300.75 508.66,300.75 509.06,300.19 
		508.66,300.19 509.06,299.63 508.66,299.63 509.06,299.08 508.66,299.08 509.06,298.52 508.66,298.52 509.06,297.97 508.66,297.97 
		509.06,297.41 508.66,297.41 509.06,296.85 508.66,296.85 509.06,296.3 508.66,296.3 509.06,295.74 508.66,295.74 509.06,295.19 
		508.66,295.19 509.06,294.63 508.66,294.63 509.06,294.07 508.66,294.07 509.06,293.52 508.66,293.52 509.06,292.96 508.66,292.96 
		509.06,292.41 508.66,292.41 509.06,291.85 508.66,291.85 509.06,291.29 508.66,291.29 509.06,290.74 508.66,290.74 509.06,290.18 
		339.61,290.18 262.22,407.6 182.84,290.18 6.05,290.18 6.44,290.74 6.05,290.74 6.44,291.29 6.05,291.29 6.44,291.85 6.05,291.85 
		6.44,292.41 6.05,292.41 6.44,292.96 6.05,292.96 6.44,293.52 6.05,293.52 6.44,294.07 6.05,294.07 6.44,294.63 6.05,294.63 
		6.44,295.19 6.05,295.19 6.44,295.74 6.05,295.74 6.44,296.3 6.05,296.3 6.44,296.85 6.05,296.85 6.44,297.41 6.05,297.41 
		6.44,297.97 6.05,297.97 6.44,298.52 6.05,298.52 6.44,299.08 6.05,299.08 6.44,299.63 6.05,299.63 6.44,300.19 6.05,300.19 
		6.44,300.75 6.05,300.75 6.44,301.3 6.05,301.3 6.44,301.86 6.05,301.86 6.44,302.41 6.05,302.41 6.44,302.97 6.05,302.97 
		6.44,303.52 6.05,303.52 6.44,304.08 6.05,304.08 6.44,304.64 6.05,304.64 6.44,305.19 6.05,305.19 6.44,305.75 6.05,305.75 
		6.44,306.3 6.05,306.3 6.44,306.86 6.05,306.86 6.44,307.42 6.05,307.42 6.44,307.97 6.05,307.97 6.44,308.53 6.05,308.53 
		6.44,309.08 6.05,309.08 6.44,309.64 6.05,309.64 6.44,310.2 6.05,310.2 6.44,310.75 6.05,310.75 6.44,311.31 6.05,311.31 
		6.44,311.86 6.05,311.86 6.44,312.42 6.05,312.42 6.44,312.98 6.05,312.98 6.44,313.53 6.05,313.53 6.44,314.09 6.05,314.09 
		6.44,314.64 6.05,314.64 6.44,315.2 6.05,315.2 6.44,315.76 6.05,315.76 6.44,316.31 6.05,316.31 6.44,316.87 6.05,316.87 
		6.44,317.42 6.05,317.42 6.44,317.98 6.05,317.98 6.44,318.54 6.05,318.54 6.44,319.09 6.05,319.09 6.44,319.65 6.05,319.65 
		6.44,320.2 6.05,320.2 6.44,320.76 6.05,320.76 6.44,321.31 6.05,321.31 6.44,321.87 6.05,321.87 6.44,322.43 6.05,322.43 
		6.44,322.98 6.05,322.98 6.44,323.54 6.05,323.54 6.44,324.09 6.05,324.09 6.44,324.65 6.05,324.65 6.44,325.21 6.05,325.21 
		6.44,325.76 6.05,325.76 6.44,326.32 6.05,326.32 6.44,326.87 6.05,326.87 6.44,327.43 6.05,327.43 6.44,327.99 6.05,327.99 
		6.44,328.54 6.05,328.54 6.44,329.1 6.05,329.1 6.44,329.65 6.05,329.65 6.44,330.21 6.05,330.21 6.44,330.77 6.05,330.77 
		6.44,331.32 6.05,331.32 6.44,331.88 6.05,331.88 6.44,332.43 6.05,332.43 6.44,332.99 6.05,332.99 6.44,333.55 6.05,333.55 
		6.44,334.1 6.05,334.1 6.44,334.66 6.05,334.66 6.44,335.21 6.05,335.21 6.44,335.77 6.05,335.77 6.44,336.32 6.05,336.32 
		6.44,336.88 6.05,336.88 6.44,337.44 6.05,337.44 6.44,337.99 6.05,337.99 6.44,338.55 6.05,338.55 6.44,339.1 6.05,339.1 
		6.44,339.66 6.05,339.66 6.44,340.22 6.05,340.22 6.44,340.77 6.05,340.77 6.44,341.33 6.05,341.33 6.44,341.88 6.05,341.88 
		6.44,342.44 6.05,342.44 6.44,343 6.05,343 6.44,343.55 6.05,343.55 6.44,344.11 6.05,344.11 6.44,344.66 6.05,344.66 6.44,345.22 
		6.05,345.22 6.44,345.78 6.05,345.78 6.44,346.33 6.05,346.33 6.44,346.89 6.05,346.89 6.44,347.44 6.05,347.44 6.44,348 6.05,348 
		6.44,348.56 6.05,348.56 6.44,349.11 6.05,349.11 6.44,349.67 6.05,349.67 6.44,350.22 6.05,350.22 6.44,350.78 6.05,350.78 
		6.44,351.34 6.05,351.34 6.44,351.89 6.05,351.89 6.44,352.45 6.05,352.45 6.44,353 6.05,353 6.44,353.56 6.05,353.56 6.44,354.12 
		6.05,354.12 6.44,354.67 6.05,354.67 6.44,355.23 6.05,355.23 6.44,355.78 6.05,355.78 6.44,356.34 6.05,356.34 6.44,356.9 
		6.05,356.9 145.15,554.71 0.04,757.17 0.44,757.17 0.04,757.73 0.44,757.73 0.04,758.28 0.44,758.28 0.04,758.84 0.44,758.84 
		0.04,759.4 0.44,759.4 0.04,759.95 0.44,759.95 0.04,760.51 0.44,760.51 0.04,761.06 0.44,761.06 0.04,761.62 0.44,761.62 
		0.04,762.18 0.44,762.18 0.04,762.73 0.44,762.73 0.04,763.29 0.44,763.29 0.04,763.84 0.44,763.84 0.04,764.4 0.44,764.4 
		0.04,764.96 0.44,764.96 0.04,765.51 0.44,765.51 0.04,766.07 0.44,766.07 0.04,766.62 0.44,766.62 0.04,767.18 0.44,767.18 
		0.04,767.74 0.44,767.74 0.04,768.29 0.44,768.29 0.04,768.85 0.44,768.85 0.04,769.4 0.44,769.4 0.04,769.96 0.44,769.96 
		0.04,770.52 0.44,770.52 0.04,771.07 0.44,771.07 0.04,771.63 0.44,771.63 0.04,772.18 0.44,772.18 0.04,772.74 0.44,772.74 
		0.04,773.3 0.44,773.3 0.04,773.85 0.44,773.85 0.04,774.41 0.44,774.41 0.04,774.96 0.44,774.96 0.04,775.52 0.44,775.52 
		0.04,776.07 0.44,776.07 0.04,776.63 0.44,776.63 0.04,777.19 0.44,777.19 0.04,777.74 0.44,777.74 0.04,778.3 0.44,778.3 
		0.04,778.85 0.44,778.85 0.04,779.41 0.44,779.41 0.04,779.97 0.44,779.97 0.04,780.52 0.44,780.52 0.04,781.08 0.44,781.08 
		0.04,781.63 0.44,781.63 0.04,782.19 0.44,782.19 0.04,782.75 0.44,782.75 0.04,783.3 0.44,783.3 0.04,783.86 0.44,783.86 
		0.04,784.41 0.44,784.41 0.04,784.97 0.44,784.97 0.04,785.53 0.44,785.53 0.04,786.08 0.44,786.08 0.04,786.64 0.44,786.64 
		0.04,787.19 0.44,787.19 0.04,787.75 0.44,787.75 0.04,788.31 0.44,788.31 0.04,788.86 0.44,788.86 0.04,789.42 0.44,789.42 
		0.04,789.97 0.44,789.97 0.04,790.53 0.44,790.53 0.04,791.09 0.44,791.09 0.04,791.64 0.44,791.64 0.04,792.2 0.44,792.2 
		0.04,792.75 0.44,792.75 0.04,793.31 0.44,793.31 0.04,793.86 0.44,793.86 0.04,794.42 0.44,794.42 0.04,794.98 0.44,794.98 
		0.04,795.53 0.44,795.53 0.04,796.09 0.44,796.09 0.04,796.64 0.44,796.64 0.04,797.2 0.44,797.2 0.04,797.76 0.44,797.76 
		0.04,798.31 0.44,798.31 0.04,798.87 0.44,798.87 0.04,799.42 0.44,799.42 0.04,799.98 0.44,799.98 0.04,800.54 0.44,800.54 
		0.04,801.09 0.44,801.09 0.04,801.65 0.44,801.65 0.04,802.2 0.44,802.2 0.04,802.76 0.44,802.76 0.04,803.32 0.44,803.32 
		0.04,803.87 0.44,803.87 0.04,804.43 0.44,804.43 0.04,804.98 0.44,804.98 0.04,805.54 0.44,805.54 0.04,806.1 0.44,806.1 
		0.04,806.65 0.44,806.65 0.04,807.21 0.44,807.21 0.04,807.76 0.44,807.76 0.04,808.32 0.44,808.32 0.04,808.87 0.44,808.87 
		0.04,809.43 0.44,809.43 0.04,809.99 0.44,809.99 0.04,810.54 0.44,810.54 0.04,811.1 0.44,811.1 0.04,811.65 0.44,811.65 
		0.04,812.21 0.44,812.21 0.04,812.77 0.44,812.77 0.04,813.32 0.44,813.32 0.04,813.88 0.44,813.88 0.04,814.43 0.44,814.43 
		0.04,814.99 0.44,814.99 0.04,815.55 0.44,815.55 0.04,816.1 0.44,816.1 0.04,816.66 0.44,816.66 0.04,817.21 0.44,817.21 
		0.04,817.77 0.44,817.77 0.04,818.33 0.44,818.33 0.04,818.88 0.44,818.88 0.04,819.44 0.44,819.44 0.04,819.99 0.44,819.99 
		0.04,820.55 0.44,820.55 0.04,821.11 0.44,821.11 0.04,821.66 0.44,821.66 0.04,822.22 0.44,822.22 0.04,822.77 0.44,822.77 
		0.04,823.33 0.44,823.33 0.04,823.89 179.5,823.89 258.22,699.13 338.94,823.89 519.07,823.89 518.67,823.33 519.07,823.33 
		518.67,822.77 519.07,822.77 518.67,822.22 519.07,822.22 518.67,821.66 519.07,821.66 518.67,821.11 519.07,821.11 518.67,820.55 
		519.07,820.55 518.67,819.99 519.07,819.99 518.67,819.44 519.07,819.44 518.67,818.88 519.07,818.88 518.67,818.33 519.07,818.33 
		518.67,817.77 519.07,817.77 518.67,817.21 519.07,817.21 518.67,816.66 519.07,816.66 518.67,816.1 519.07,816.1 518.67,815.55 
		519.07,815.55 518.67,814.99 519.07,814.99 518.67,814.43 519.07,814.43 518.67,813.88 519.07,813.88 518.67,813.32 519.07,813.32 
		518.67,812.77 519.07,812.77 518.67,812.21 519.07,812.21 518.67,811.65 519.07,811.65 518.67,811.1 519.07,811.1 518.67,810.54 
		519.07,810.54 518.67,809.99 519.07,809.99 518.67,809.43 519.07,809.43 518.67,808.87 519.07,808.87 518.67,808.32 519.07,808.32 
		518.67,807.76 519.07,807.76 518.67,807.21 519.07,807.21 518.67,806.65 519.07,806.65 518.67,806.1 519.07,806.1 518.67,805.54 
		519.07,805.54 518.67,804.98 519.07,804.98 518.67,804.43 519.07,804.43 518.67,803.87 519.07,803.87 518.67,803.32 519.07,803.32 
		518.67,802.76 519.07,802.76 518.67,802.2 519.07,802.2 518.67,801.65 519.07,801.65 518.67,801.09 519.07,801.09 518.67,800.54 
		519.07,800.54 518.67,799.98 519.07,799.98 518.67,799.42 519.07,799.42 518.67,798.87 519.07,798.87 518.67,798.31 519.07,798.31 
		518.67,797.76 519.07,797.76 518.67,797.2 519.07,797.2 518.67,796.64 519.07,796.64 518.67,796.09 519.07,796.09 518.67,795.53 
		519.07,795.53 518.67,794.98 519.07,794.98 518.67,794.42 519.07,794.42 518.67,793.86 519.07,793.86 518.67,793.31 519.07,793.31 
		518.67,792.75 519.07,792.75 518.67,792.2 519.07,792.2 518.67,791.64 519.07,791.64 518.67,791.09 519.07,791.09 518.67,790.53 
		519.07,790.53 518.67,789.97 519.07,789.97 518.67,789.42 519.07,789.42 518.67,788.86 519.07,788.86 518.67,788.31 519.07,788.31 
		518.67,787.75 519.07,787.75 518.67,787.19 519.07,787.19 518.67,786.64 519.07,786.64 518.67,786.08 519.07,786.08 518.67,785.53 
		519.07,785.53 518.67,784.97 519.07,784.97 518.67,784.41 519.07,784.41 518.67,783.86 519.07,783.86 518.67,783.3 519.07,783.3 
		518.67,782.75 519.07,782.75 518.67,782.19 519.07,782.19 518.67,781.63 519.07,781.63 518.67,781.08 519.07,781.08 518.67,780.52 
		519.07,780.52 518.67,779.97 519.07,779.97 518.67,779.41 519.07,779.41 518.67,778.85 519.07,778.85 518.67,778.3 519.07,778.3 
		518.67,777.74 519.07,777.74 518.67,777.19 519.07,777.19 518.67,776.63 519.07,776.63 518.67,776.07 519.07,776.07 518.67,775.52 
		519.07,775.52 518.67,774.96 519.07,774.96 518.67,774.41 519.07,774.41 518.67,773.85 519.07,773.85 518.67,773.3 519.07,773.3 
		518.67,772.74 519.07,772.74 518.67,772.18 519.07,772.18 518.67,771.63 519.07,771.63 518.67,771.07 519.07,771.07 518.67,770.52 
		519.07,770.52 518.67,769.96 519.07,769.96 518.67,769.4 519.07,769.4 518.67,768.85 519.07,768.85 518.67,768.29 519.07,768.29 
		518.67,767.74 519.07,767.74 518.67,767.18 519.07,767.18 518.67,766.62 519.07,766.62 518.67,766.07 519.07,766.07 518.67,765.51 
		519.07,765.51 518.67,764.96 519.07,764.96 518.67,764.4 519.07,764.4 518.67,763.84 519.07,763.84 518.67,763.29 519.07,763.29 
		518.67,762.73 519.07,762.73 518.67,762.18 519.07,762.18 518.67,761.62 519.07,761.62 518.67,761.06 519.07,761.06 518.67,760.51 
		519.07,760.51 518.67,759.95 519.07,759.95 518.67,759.4 519.07,759.4 518.67,758.84 519.07,758.84 518.67,758.28 519.07,758.28 
		518.67,757.73 519.07,757.73 518.67,757.17 519.07,757.17 	"/>
</g>
<g id="text_1_">
	<g>
		<path class="st0" d="M338.9,757.22l-80.72-124.76l-78.72,124.76H0l168.79-235.5L6,290.23h176.79l79.39,117.41l77.39-117.41h169.45
			L346.91,515.71l172.12,241.51H338.9z"/>
		<path d="M487.33,301.34L337.88,509.22c-2.78,3.86-2.79,9.07-0.03,12.94l159.6,223.94h-152.5l-77.43-119.68
			c-2.05-3.17-5.56-5.08-9.34-5.08c-0.02,0-0.04,0-0.06,0c-3.79,0.02-7.32,1.98-9.34,5.19L173.33,746.1H21.65l156.17-217.91
			c2.75-3.84,2.78-9.01,0.06-12.87L27.42,301.34h149.47l76.08,112.52c2.07,3.06,5.52,4.89,9.21,4.89c0.02,0,0.04,0,0.07,0
			c3.71-0.02,7.17-1.9,9.22-5l74.09-112.41H487.33 M509.02,290.23H339.57l-77.39,117.41l-79.39-117.41H6l162.78,231.49L0,757.22
			h179.46l78.72-124.76l80.72,124.76h180.13L346.91,515.71L509.02,290.23L509.02,290.23z"/>
	</g>
	<g>
		<path class="st0" d="M589.74,736.53c-40.02-20.9-71.38-49.92-94.06-87.06c-22.68-37.12-34.02-79.05-34.02-125.75
			s11.34-88.61,34.02-125.76c22.68-37.12,54.04-66.15,94.06-87.06c40.03-20.89,85.17-31.35,135.43-31.35
			c50.25,0,95.4,10.46,135.43,31.35c40.03,20.91,71.38,49.94,94.06,87.06c22.68,37.15,34.02,79.06,34.02,125.76
			s-11.34,88.62-34.02,125.75c-22.68,37.15-54.04,66.16-94.06,87.06c-40.03,20.9-85.18,31.36-135.43,31.36
			C674.9,767.89,629.77,757.43,589.74,736.53z M778.2,626.13c15.78-9.57,28.35-23.12,37.69-40.7c9.34-17.57,14.01-38.13,14.01-61.71
			c0-23.57-4.67-44.14-14.01-61.71c-9.34-17.57-21.91-31.13-37.69-40.7c-15.79-9.57-33.47-14.34-53.04-14.34
			c-19.58,0-37.25,4.78-53.04,14.34c-15.79,9.57-28.35,23.13-37.69,40.7c-9.34,17.57-14.01,38.13-14.01,61.71
			c0,23.57,4.67,44.14,14.01,61.71c9.34,17.58,21.9,31.13,37.69,40.7c15.78,9.57,33.46,14.34,53.04,14.34
			C744.73,640.47,762.41,635.69,778.2,626.13z"/>
		<path d="M725.17,290.67c48.2,0,92.03,10.12,130.28,30.08c38.02,19.86,68.21,47.79,89.72,83c21.49,35.2,32.39,75.56,32.39,119.97
			c0,44.42-10.9,84.78-32.39,119.95c-21.5,35.22-51.69,63.14-89.72,83c-38.24,19.97-82.08,30.1-130.28,30.1
			c-48.21,0-92.04-10.13-130.28-30.1c-38.03-19.86-68.22-47.79-89.72-83c-21.49-35.17-32.39-75.53-32.39-119.95
			c0-44.41,10.9-84.77,32.39-119.96c21.51-35.21,51.7-63.13,89.72-83C633.13,300.79,676.97,290.67,725.17,290.67 M725.17,651.59
			c21.54,0,41.32-5.37,58.8-15.95c17.46-10.58,31.51-25.72,41.75-44.99c10.16-19.11,15.31-41.63,15.31-66.93
			c0-25.3-5.15-47.82-15.31-66.93c-10.25-19.27-24.29-34.41-41.75-44.99c-17.48-10.58-37.26-15.95-58.8-15.95
			c-21.55,0-41.33,5.37-58.8,15.95c-17.45,10.57-31.5,25.7-41.75,44.99c-10.16,19.11-15.31,41.63-15.31,66.93
			c0,25.3,5.15,47.82,15.31,66.93c10.25,19.28,24.29,34.41,41.75,44.99C683.83,646.22,703.61,651.59,725.17,651.59 M725.17,279.55
			c-50.26,0-95.4,10.46-135.43,31.35c-40.02,20.91-71.38,49.94-94.06,87.06c-22.68,37.15-34.02,79.06-34.02,125.76
			s11.34,88.62,34.02,125.75c22.68,37.15,54.04,66.16,94.06,87.06c40.03,20.9,85.17,31.36,135.43,31.36
			c50.25,0,95.4-10.46,135.43-31.36c40.03-20.9,71.38-49.92,94.06-87.06c22.68-37.12,34.02-79.05,34.02-125.75
			s-11.34-88.61-34.02-125.76c-22.68-37.12-54.04-66.15-94.06-87.06C820.57,290.01,775.42,279.55,725.17,279.55L725.17,279.55z
			 M725.17,640.47c-19.58,0-37.25-4.78-53.04-14.34c-15.79-9.57-28.35-23.12-37.69-40.7c-9.34-17.57-14.01-38.13-14.01-61.71
			c0-23.57,4.67-44.14,14.01-61.71c9.34-17.57,21.9-31.13,37.69-40.7c15.78-9.57,33.46-14.34,53.04-14.34
			c19.57,0,37.24,4.78,53.04,14.34c15.78,9.57,28.35,23.13,37.69,40.7c9.34,17.57,14.01,38.13,14.01,61.71
			c0,23.57-4.67,44.14-14.01,61.71c-9.34,17.58-21.91,31.13-37.69,40.7C762.41,635.69,744.73,640.47,725.17,640.47L725.17,640.47z"
			/>
	</g>
	<g>
		<path class="st0" d="M1270.21,757.22l-80.72-124.76l-78.72,124.76H931.31l168.79-235.5L937.31,290.23h176.79l79.38,117.41
			l77.4-117.41h169.44l-162.1,225.48l172.11,241.51H1270.21z"/>
		<path d="M1418.64,301.34L1269.2,509.22c-2.78,3.86-2.79,9.07-0.03,12.94l159.59,223.94h-152.5l-77.43-119.68
			c-2.05-3.17-5.56-5.08-9.34-5.08c-0.02,0-0.04,0-0.06,0c-3.79,0.02-7.32,1.98-9.34,5.19l-75.45,119.58H952.96l156.17-217.91
			c2.75-3.84,2.78-9.01,0.06-12.87L958.73,301.34h149.47l76.08,112.52c2.07,3.06,5.52,4.89,9.21,4.89c0.02,0,0.04,0,0.07,0
			c3.71-0.02,7.17-1.9,9.22-5l74.1-112.41H1418.64 M1440.33,290.23h-169.44l-77.4,117.41l-79.38-117.41H937.31l162.78,231.49
			l-168.79,235.5h179.46l78.72-124.76l80.72,124.76h180.13l-172.11-241.51L1440.33,290.23L1440.33,290.23z"/>
	</g>
	<g>
		<path class="st0" d="M1521.06,736.53c-40.02-20.9-71.38-49.92-94.08-87.06c-22.67-37.12-34.01-79.05-34.01-125.75
			s11.34-88.61,34.01-125.76c22.69-37.12,54.05-66.15,94.08-87.06c40.02-20.89,85.16-31.35,135.43-31.35
			c50.25,0,95.38,10.46,135.42,31.35c40.02,20.91,71.38,49.94,94.05,87.06c22.69,37.15,34.03,79.06,34.03,125.76
			s-11.34,88.62-34.03,125.75c-22.67,37.15-54.03,66.16-94.05,87.06c-40.05,20.9-85.17,31.36-135.42,31.36
			C1606.22,767.89,1561.08,757.43,1521.06,736.53z M1709.52,626.13c15.77-9.57,28.34-23.12,37.68-40.7
			c9.36-17.57,14.03-38.13,14.03-61.71c0-23.57-4.67-44.14-14.03-61.71c-9.34-17.57-21.91-31.13-37.68-40.7
			c-15.79-9.57-33.49-14.34-53.03-14.34c-19.59,0-37.27,4.78-53.04,14.34c-15.8,9.57-28.36,23.13-37.7,40.7
			c-9.34,17.57-14.01,38.13-14.01,61.71c0,23.57,4.67,44.14,14.01,61.71c9.34,17.58,21.9,31.13,37.7,40.7
			c15.78,9.57,33.45,14.34,53.04,14.34C1676.04,640.47,1693.74,635.69,1709.52,626.13z"/>
		<path d="M1656.49,290.67c48.18,0,92.01,10.12,130.27,30.08c38.03,19.87,68.21,47.8,89.71,83c21.5,35.19,32.4,75.55,32.4,119.96
			c0,44.43-10.9,84.78-32.4,119.96c-21.49,35.21-51.67,63.13-89.71,83c-38.26,19.97-82.09,30.1-130.28,30.1
			c-48.21,0-92.05-10.13-130.29-30.1c-38.03-19.86-68.22-47.79-89.73-83c-21.49-35.18-32.38-75.54-32.38-119.95
			c0-44.4,10.89-84.76,32.38-119.96c21.53-35.21,51.72-63.14,89.73-83C1564.45,300.79,1608.28,290.67,1656.49,290.67
			 M1656.49,651.59c21.54,0,41.32-5.37,58.8-15.96c17.46-10.59,31.5-25.73,41.72-44.97c10.18-19.1,15.33-41.62,15.33-66.94
			c0-25.32-5.16-47.84-15.33-66.93c-10.24-19.26-24.28-34.39-41.73-44.99c-17.47-10.59-37.25-15.95-58.79-15.95
			c-21.56,0-41.35,5.37-58.8,15.95c-17.46,10.57-31.51,25.71-41.76,44.99c-10.16,19.11-15.31,41.63-15.31,66.93
			c0,25.3,5.15,47.82,15.31,66.92c10.24,19.28,24.29,34.41,41.75,44.99C1615.15,646.22,1634.93,651.59,1656.49,651.59
			 M1656.49,279.55c-50.27,0-95.41,10.46-135.43,31.35c-40.02,20.91-71.38,49.94-94.08,87.06c-22.67,37.15-34.01,79.06-34.01,125.76
			s11.34,88.62,34.01,125.75c22.69,37.15,54.05,66.16,94.08,87.06s85.16,31.36,135.43,31.36c50.25,0,95.38-10.46,135.42-31.36
			c40.02-20.9,71.38-49.92,94.05-87.06c22.69-37.12,34.03-79.05,34.03-125.75s-11.34-88.61-34.03-125.76
			c-22.67-37.12-54.03-66.15-94.05-87.06C1751.87,290.01,1706.74,279.55,1656.49,279.55L1656.49,279.55z M1656.49,640.47
			c-19.59,0-37.27-4.78-53.04-14.34c-15.8-9.57-28.36-23.12-37.7-40.7c-9.34-17.57-14.01-38.13-14.01-61.71
			c0-23.57,4.67-44.14,14.01-61.71c9.34-17.57,21.9-31.13,37.7-40.7c15.78-9.57,33.45-14.34,53.04-14.34
			c19.54,0,37.24,4.78,53.03,14.34c15.77,9.57,28.34,23.13,37.68,40.7c9.36,17.57,14.03,38.13,14.03,61.71
			c0,23.57-4.67,44.14-14.03,61.71c-9.34,17.58-21.91,31.13-37.68,40.7C1693.74,635.69,1676.04,640.47,1656.49,640.47
			L1656.49,640.47z"/>
	</g>
</g>
<g id="shape_1_">
	<path d="M1083.17,214.7l-49.37,98.18l-28.8,57.26c-5,9.9-14.45,16.68-25.46,18.12c-1.45,0.11-2.89,0.22-4.34,0.22
		c-9.45,0-18.57-4-24.91-11.12l-36.14-40.58l-7.78-8.78l-10.9,52.37c-2.45,11.56-10.9,21.01-22.13,24.79
		c-3.45,1.11-7,1.67-10.56,1.67c-8.01,0-15.79-2.78-22.02-8.23l-70.6-61.93l-23.79-20.79l-23.35,34.13l-35.58,51.92
		c-6.45,9.45-16.9,14.57-27.57,14.57c-6.23,0-12.45-1.67-18.01-5.34l-8.89-5.78l-8.89-5.67c-15.34-10.01-19.9-30.47-10.01-45.92
		l33.58-52.7l57.82-90.84c5.11-8.12,13.56-13.68,23.02-15.12c1.67-0.22,3.45-0.33,5.11-0.33c7.78,0,15.46,2.78,21.46,7.89
		l17.12,14.45l52.15,44.03l13.45-72.27c2.33-12.68,11.79-22.79,24.13-26.13c2.89-0.78,5.78-1.22,8.67-1.22
		c9.56,0,18.9,4.23,25.35,11.67l60.82,71.05l5.78,6.78l43.47-77.28c6.12-10.78,17.46-17.01,29.13-17.01
		c5.23,0,10.56,1.22,15.45,3.89l18.24,9.56C1084.95,178.68,1091.29,198.47,1083.17,214.7z"/>
	<path class="st1" d="M740.1,265.95c-29.28,42.81-54.71,80.01-80.15,117.21c-5.92-3.83-11.84-7.65-17.76-11.48
		c29.47-46.3,58.95-92.61,91.37-143.55c40.03,33.81,74.59,63.01,113.1,95.54c7.64-41.14,14.21-76.49,23.92-128.72
		c36.53,42.65,65.01,75.88,97.72,114.07c23.73-42.22,45.27-80.54,66.8-118.85c6.08,3.19,12.15,6.38,18.23,9.57
		c-24.5,48.74-49,97.48-78.12,155.42c-30.91-34.76-56.82-63.89-87.91-98.84c-8.54,40.82-15.73,75.2-24.51,117.18
		C819.09,335.2,781.93,302.62,740.1,265.95z"/>
</g>
</svg>
