<svg id="Layer_1" data-name="Layer 1" xmlns="http://www.w3.org/2000/svg" viewBox="0 0 1200 600"><defs><style>.cls-1,.cls-11,.cls-17,.cls-8{fill:#fff;}.cls-1,.cls-11,.cls-12,.cls-4,.cls-6,.cls-7{stroke:#3c4043;}.cls-1,.cls-14,.cls-16,.cls-17,.cls-18,.cls-19,.cls-20,.cls-22,.cls-3,.cls-4,.cls-5,.cls-6,.cls-7{stroke-linecap:round;}.cls-1,.cls-14,.cls-16,.cls-17,.cls-18,.cls-19,.cls-20,.cls-22,.cls-3,.cls-4,.cls-6,.cls-7{stroke-linejoin:round;}.cls-2{fill:#f1f3f4;}.cls-14,.cls-16,.cls-18,.cls-22,.cls-3,.cls-4,.cls-5{fill:none;}.cls-14,.cls-3{stroke:#3b4043;}.cls-5{stroke:#3183fb;stroke-width:2px;}.cls-12,.cls-5{stroke-miterlimit:10;}.cls-10,.cls-6{fill:#eaa486;}.cls-12,.cls-7{fill:#3c4043;}.cls-19,.cls-9{fill:#d2e3fc;}.cls-13{fill:#feefc3;}.cls-14{stroke-dasharray:10 5;}.cls-15{fill:#3caf5d;}.cls-16,.cls-22{stroke:#fff;}.cls-17,.cls-18,.cls-20{stroke:#3d4043;}.cls-19{stroke:#d4e2f9;}.cls-20{fill:#3d4043;}.cls-21{fill:#ffb900;}.cls-22{stroke-width:1.06px;}</style></defs><path class="cls-1" d="M783.92,64.34H116.16V535.66H783.92Z"/><path class="cls-2" d="M1030.49,221.66V64.34H835.37V221.66Z"/><path class="cls-3" d="M835.37,221.66h195.12"/><path class="cls-4" d="M183.11,390.55H426"/><path class="cls-4" d="M183.11,356.42H532"/><path class="cls-4" d="M183.11,322.29H532"/><path class="cls-4" d="M183.11,288.16H532"/><path class="cls-4" d="M183.11,254H532"/><path class="cls-4" d="M183.11,219.92H532"/><path class="cls-5" d="M183.11,163.72h408"/><path class="cls-6" d="M993.86,496.74l9.73,13.65,10.48-8.48-9.4-13.78Z"/><path class="cls-1" d="M1014.07,501.91,1026,518l-4.3,3.86s-8.86,8.17-16.1,11a31.3,31.3,0,0,1-13.9,2s-2-3.41,2.63-5.62c7.4-3.52,10.82-11.09,7.67-18.22Z"/><path class="cls-7" d="M993.86,496.74l11.87-6.72,2.42,3.44Z"/><path class="cls-8" d="M964.42,356.76c-1.79,25.9-6.77,119.22-6,142.19,5.28,2.47,14.08,2.12,23.23,2.12,10.92-37.32,23.59-94.68,23.59-119.33s-4.22-42.23-6.73-52.86H950.74c-5,33.5-9.9,79.07-9.9,100.2,0,6-.44,7.91,6.69,18.22,13.17,19.05,36,46.21,40.83,53.77,9.15-2.47,14.43-7.4,20.41-14.43-9.15-16.9-22.53-51.38-22.53-51.38"/><path class="cls-4" d="M964.42,356.76c-1.79,25.9-6.77,119.22-6,142.19,5.28,2.47,14.08,2.12,23.23,2.12,10.92-37.32,23.59-94.68,23.59-119.33s-4.22-42.23-6.73-52.86H950.74c-5,33.5-9.9,79.07-9.9,100.2,0,6-.44,7.91,6.69,18.22,13.17,19.05,36,46.21,40.83,53.77,9.15-2.47,14.43-7.4,20.41-14.43-9.15-16.9-22.53-51.38-22.53-51.38"/><path class="cls-4" d="M983.6,494.32c1.64,2.13,3.56,4.86,4.76,6.73,9.15-2.46,14.43-7.4,20.41-14.43"/><path class="cls-4" d="M947.53,447.3c2.72,3.95,8.19,11.3,11.5,15.69"/><path class="cls-8" d="M964.42,356.76c-1.79,25.9-6.77,119.22-6,142.19,5.28,2.47,14.08,2.12,23.23,2.12,10.92-37.32,23.59-94.68,23.59-119.33s-4.22-42.23-6.73-52.86"/><path class="cls-4" d="M964.42,356.76c-1.79,25.9-6.77,119.22-6,142.19,5.28,2.47,14,1.95,23.2,1.95,10.91-37.31,23.62-94.51,23.62-119.16s-4.22-42.23-6.73-52.86"/><path class="cls-9" d="M1002.71,293.76l-6.36,19.1-18.3,6.36-19.89-29.44L994.75,285Z"/><path class="cls-9" d="M955.15,328.9h43.38c0-11.65,1.62-28.53,4.5-36.41"/><path class="cls-4" d="M955.15,328.9h43.38c0-11.65,1.62-28.53,4.5-36.41"/><path class="cls-9" d="M995.8,289.64c9.33,3.72,24.27,25.35,24.27,25.35-6,3.34-18.58,8.37-21.56,9.5s2.08,22,6.68,21.88,29-8.31,37.11-14.69c7.35-5.81.76-21.59-1.92-27.5-4.43-9.7-25.39-44.44-48.9-44.84-5,3.84-18,7.21-26.37-.24-9.44,1-29.07,8.64-36.17,8.64-7.8-9.15-11.2-19.63-14.59-24.71s-22.34,4-21.05,8.77,14.09,30.52,19,36.63c3.2,3.95,7.1,3.88,12.53,3.88s23.69-.35,23.69-.35"/><path class="cls-4" d="M965.11,259.1c-9.44,1-29.07,8.64-36.17,8.64-7.8-9.15-11.2-19.63-14.59-24.71s-22.34,4-21.05,8.77"/><path class="cls-4" d="M995.8,289.64c9.33,3.72,24.27,25.35,24.27,25.35-6,3.34-18.58,8.37-21.56,9.5s2.08,22,6.68,21.88,29-8.31,37.11-14.69c7.35-5.81.76-21.59-1.92-27.5-4.43-9.7-25.39-44.44-48.9-44.84"/><path class="cls-9" d="M955.83,273.7c-9.15,16.26-8.19,26.46-5.09,55.18h36.31"/><path class="cls-4" d="M955.83,273.7c-9.15,16.26-8.19,26.46-5.09,55.18h36.31"/><path class="cls-7" d="M893.3,251.81c-.85-2,3.18-5.64,9-8.06s11.22-2.75,12.06-.72-3.18,5.64-9,8.06S894.14,253.83,893.3,251.81Z"/><path class="cls-7" d="M997.25,336.52c-1.45-6.13-.89-11.51,1.25-12s5,4.06,6.49,10.19.89,11.52-1.25,12S998.69,342.65,997.25,336.52Z"/><path class="cls-10" d="M913.78,245.36s-9.2-15.07-11.24-18.62-4.57-5.08-9.66-5.08H874.06c-.57,1.8,1.53,3.31,3.1,3.55a92.29,92.29,0,0,1,17,5.46c5.57,7.37,6.63,21.86,6.63,21.86a40.77,40.77,0,0,0,7.82-3.08A18.06,18.06,0,0,0,913.78,245.36Z"/><path class="cls-10" d="M1000.32,325.78c-5.25,2-14.54,2.7-16.29,3.2l2.1,11.17c1.72-.48,12.09-1.23,18.68-2.31A16.13,16.13,0,0,0,1000.32,325.78Z"/><path class="cls-10" d="M972.79,258a17.89,17.89,0,0,0,1.68-6.39c0-1.67-3.06-.81-5.29-1.93s-1.11-4.76-.27-8.1,3.68-14.57,10.85-15.86c7.8-1.39,16.14,3.34,16.43,11.12S992,248.67,987,249.33c-4.16.56-3.34,4.73-1.94,8.36,1.74.49,5,1.32,6.45,1.65-3.3,3-8.31,4.2-13.08,4.27-.83,0-3.71,5.88-4.52,5.84-1-.07.14-6.1-.77-6.24-4.16-.7-7.41-2.26-8-4.11Z"/><path class="cls-6" d="M964.73,500.48v17.39h12.92l.62-16.77Z"/><path class="cls-1" d="M979.27,514.69l.19,20.32H941.78c.51-3,1.8-4.87,6.29-6.14,3.72-1,15.65-8.59,16.67-14.18Z"/><path class="cls-7" d="M963.14,500.48l15.06.51-.28,4Z"/><path class="cls-4" d="M984,329l3.36,17.94"/><path class="cls-7" d="M993.86,454.1l2,4.51-12.38,36.17Z"/><path class="cls-11" d="M162.46,86.55a7.14,7.14,0,1,1-7.14-7.13A7.14,7.14,0,0,1,162.46,86.55Z"/><path class="cls-11" d="M197.39,86.55a7.14,7.14,0,1,1-7.14-7.13A7.14,7.14,0,0,1,197.39,86.55Z"/><path class="cls-4" d="M116.84,107.32H556.62"/><path class="cls-4" d="M650.54,218.17H591.1V392.3h59.44Z"/><path class="cls-12" d="M643.74,399.46,783.53,406v-6.8c0-.06-128.65.06-139.77.07A.09.09,0,0,0,643.74,399.46Z"/><path class="cls-13" d="M847.73,187.35H643.67V399.64H847.73Z"/><path class="cls-14" d="M847.73,187.35H643.67V399.64H847.73Z"/><path class="cls-13" d="M717,429.53H183.1v80.71H717Z"/><path class="cls-14" d="M717,429.53H183.1v80.71H717Z"/><ellipse class="cls-15" cx="717.71" cy="469.88" rx="24.75" ry="24.94" transform="matrix(1, -0.04, 0.04, 1, -16.78, 26.69)"/><line class="cls-16" x1="705.35" y1="469.97" x2="729.16" y2="469.97"/><line class="cls-16" x1="717.26" y1="458.07" x2="717.26" y2="481.87"/><ellipse class="cls-3" cx="717.71" cy="469.88" rx="24.75" ry="24.94" transform="matrix(1, -0.04, 0.04, 1, -16.78, 26.69)"/><ellipse class="cls-15" cx="847.73" cy="281.5" rx="24.75" ry="24.94" transform="translate(-9.77 31.34) rotate(-2.11)"/><line class="cls-16" x1="835.37" y1="281.59" x2="859.18" y2="281.59"/><line class="cls-16" x1="847.28" y1="269.68" x2="847.28" y2="293.49"/><ellipse class="cls-3" cx="847.73" cy="281.5" rx="24.75" ry="24.94" transform="translate(-9.77 31.34) rotate(-2.11)"/><path class="cls-17" d="M1008.77,86.91H858.82v100h149.95Z"/><path class="cls-18" d="M858.82,104.09H996.28"/><path class="cls-18" d="M867.41,97.84a2.35,2.35,0,1,0-2.34-2.34A2.34,2.34,0,0,0,867.41,97.84Z"/><path class="cls-18" d="M878.35,97.84A2.35,2.35,0,1,0,876,95.5,2.34,2.34,0,0,0,878.35,97.84Z"/><path class="cls-18" d="M880.69,130.64h37.49"/><path class="cls-18" d="M880.69,119.71h18.74"/><path class="cls-18" d="M880.69,143.14h37.49"/><path class="cls-18" d="M880.69,155.63h37.49"/><path class="cls-18" d="M880.69,168.13h37.49"/><path class="cls-18" d="M933.8,168.13h50"/><path class="cls-19" d="M983.78,119.71h-50V157.2h50Z"/><path class="cls-18" d="M950.52,140.31l-.94,15.32"/><path class="cls-18" d="M954.56,140.31l-.94,15.32"/><path class="cls-20" d="M959.82,142c3.24,0,5.94-.92,6.72-3H948.47v3Z"/><path class="cls-18" d="M966.54,139c1.69-3.78,2.62-9.8,3.16-15.05"/><path class="cls-18" d="M955.65,139c1.7-3.78,2.63-9.8,3.17-15.05"/><path class="cls-20" d="M969.7,123.94l-10.88,0-.93,6.83h10.89S969.17,128.57,969.7,123.94Z"/><path class="cls-18" d="M961.94,140.31l1.19,15.32"/><path class="cls-18" d="M965.94,140.31l1.19,15.32"/><path class="cls-4" d="M983.65,263.05a27.79,27.79,0,0,1-5.22.56c-.83,0-3.71,5.88-4.52,5.84-1-.07.14-6.1-.77-6.24-4.16-.7-7.41-2.26-8-4.11l7.65-1.13,1-2.67"/><path class="cls-21" d="M979.75,225.7a27.66,27.66,0,0,0,2.89,12.24,2.9,2.9,0,0,1,4.14,2.55c0,2.35-2.67,3-4.42,3-.59,4.12-1.21,9.5,1.4,13.4,6.32,9.47,20.06,1.06,19-5.91s.43-7-.34-11.68C1001.06,231,991,223.75,979.75,225.7Z"/><path class="cls-4" d="M912.31,241.8a2.5,2.5,0,0,1,2.05,1.23c.85,2-3.18,5.64-9,8.06s-11.22,2.74-12.06.72c-.6-1.45,1.27-3.7,4.51-5.75"/><path class="cls-4" d="M1062.45,535.64H895.1"/><path class="cls-22" d="M1062.45,536.92H895.1"/></svg>