<svg enable-background="new 0 0 1200 600" viewBox="0 0 1200 600" xmlns="http://www.w3.org/2000/svg"><path d="m131.7 441 4.1-21.5h5.9l4.2 17.9z" fill="#3b4043"/><path d="m436.8 405.4v112.6h667.8v-471.3h-667.8v66.7" fill="#fff" stroke="#3c4043" stroke-linecap="round" stroke-linejoin="round"/><path d="m483.1 68.9c0 3.9-3.2 7.1-7.1 7.1s-7.1-3.2-7.1-7.1 3.2-7.1 7.1-7.1c3.9 0 7.1 3.2 7.1 7.1z" fill="#fff" stroke="#3c4043"/><path d="m518 68.9c0 3.9-3.2 7.1-7.1 7.1s-7.1-3.2-7.1-7.1 3.2-7.1 7.1-7.1 7.1 3.2 7.1 7.1z" fill="#fff" stroke="#3c4043"/><path d="m437.5 89.7h439.8" fill="none" stroke="#3c4043" stroke-linecap="round" stroke-linejoin="round"/><path d="m464.9 431.7h23.8" fill="none" stroke="#fff" stroke-linecap="round" stroke-linejoin="round"/><path d="m402 349.3h34.7v13.2z" style="fill-rule:evenodd;clip-rule:evenodd;fill:#3d4043;stroke:#3d4043;stroke-linecap:round;stroke-linejoin:round"/><path d="m292 513.4 3.5 12.7-.5 24.9h64c-9.9-17.8-31 3.8-47.7-37.5z" fill="#fff" stroke="#3b4043" stroke-linecap="round" stroke-linejoin="round"/><path d="m315.9 522.2-20.4 5.7-.1-2.9-1.9-5.6 22.9-3.8z" fill="#3b4043"/><path d="m150.4 420-13.2.1-23.8-7.1-17 61.6c19.7-4.8 4.6-30.8 48.8-36z" fill="#fff" stroke="#3b4043" stroke-linecap="round" stroke-linejoin="round"/><path d="m356.8 221.1s30.8 43.5 31.5 47.1-32.2-7.9-32.2-7.9l-16.7-23.6s5-21.4 17.4-15.6z" fill="#fcc1a9"/><path d="m237.9 289.9s-8.7 25.3-10 40.4c-.6 7-6.3 85.6-6.3 85.6l-83.4-1.3.1 32.9s108.6 26.4 119.4-14.1c13-48.8 20.8-93 20.8-93l12.4 73.5-3.9 108.1h37.3s-.7-97.2 0-106.6-4-115.3-4-115.3-37.2-22.7-82.4-10.2z" fill="#fff" stroke="#3b4043" stroke-linecap="round" stroke-linejoin="round"/><path d="m277.5 167.6-26.5 12.9-9.7 99.2s47.6 18.1 80.1 12.1l10.9-105.3-23.4-10.7z" fill="#fff"/><path d="m295.4 194.9s-.6 4.6-1.7 11.7c-.1.8-.2 1.6-.4 2.5-.9 5.9-2 13.3-3.4 21.2-.1.9-.3 1.7-.4 2.6-.5 3.1-1.1 6.3-1.7 9.5-.1.8-.3 1.5-.4 2.3-1.1 5.7-2.2 11.5-3.4 16.9-.2.8-.3 1.6-.5 2.4-1 4.6-2.1 9-3.1 12.9-.2.8-.4 1.6-.6 2.3-2.5 8.9-5.2 20.8-7.6 21.5-10.3 3.1-38.9-9.4-38.9-9.4.2-.9.6-9.2 1.1-12.8.1-1.1.3-2.2.5-3.4.4-3 1-6.6 1.5-10.5.1-.9.3-1.8.4-2.6.3-1.8.5-3.6.8-5.5.1-.9.3-1.8.4-2.8l2.6-18.4c.2-1.3.4-2.5.6-3.8 3.7-25.7 7.4-51.4 8.1-54.6v-.1c.5-1.2 1.3-2.1 2.4-2.7 6.9-4.4 25.7-6.4 25.7-6.4 1.9 4.5 4.2 8.9 6.7 13.1 1.5 2.5 3 4.7 4.3 6.4 4.1 5.6 7 7.7 7 7.7z" fill="#d2e3fc"/><path d="m290 230.3c-.1.9-.3 1.7-.4 2.6-.5 3.1-1.1 6.3-1.7 9.5-.1.8-.3 1.5-.4 2.3-1.1 5.7-2.2 11.5-3.4 16.9-.2.8-.3 1.6-.5 2.4-1 4.6-2.1 9-3.1 12.9-.2.8-.4 1.6-.6 2.3-2.5 8.9-5.2 20.8-7.6 21.5-10.3 3.1-38.9-9.4-38.9-9.4.2-.9.6-9.2 1.1-12.8.1-1.1.3-2.2.5-3.4.4-3 1-6.6 1.5-10.5.1-.9.3-1.8.4-2.6.3-1.8.5-3.6.8-5.5.1-.9.3-1.8.4-2.8l2.6-18.4c.2-1.3.4-2.5.6-3.8 3.7-25.7 7.4-51.4 8.1-54.6v-.1c.5-1.2 1.3-2.1 2.4-2.7 6.9-4.4 25.7-6.4 25.7-6.4" fill="none" stroke="#3b4043" stroke-linecap="round" stroke-linejoin="round"/><path d="m358.6 218.1-4.8-5.9-1.6-1.9-17.9-22c-6.7-6.7-25.5-12.5-25.5-12.5-1.5 10.8-6 17.3-7.4 19.1-.3.4-.5.5-.5.5l-.2 1.8-1 8.6-.3 2.4-2.1 18.8-.3 2.9-1.7 15.6-.3 2.4-2.1 18.9-.3 2.4-1 9.1-.3 2.4-1.7 15.1s10.6-4.3 19.1 4.5 19.3-2.5 19.3-2.5c-.9-3.3-.5-11.2.4-21.3.1-.9.2-1.7.2-2.6.3-3.4.7-7 1.1-10.8l.3-3c.6-5.1 1.2-10.4 1.8-15.6.1-.8.2-1.6.3-2.4.4-3.4.8-6.8 1.1-10.2l6.1 6.3s18.1-15.3 19.6-17.4l.7-1z" fill="#d2e3fc"/><path d="m359.7 219.5-1.2-1.4-4.8-5.9-1.6-1.9-17.9-22c-6.7-6.7-25.5-12.5-25.5-12.5" fill="none" stroke="#3b4043" stroke-linecap="round" stroke-linejoin="round"/><path d="m295 247.8-2.1 18.9-.3 2.4-1 9.1-.3 2.4-1.7 15.1s10.6-4.3 19.1 4.5 19.3-2.5 19.3-2.5c-.9-3.3-.5-11.2.4-21.3l.2-2.6c.3-3.4.7-7 1.1-10.8l.3-3c.6-5.1 1.2-10.4 1.8-15.6.1-.8 1.9-12.2 1.9-12.2" fill="none" stroke="#3b4043" stroke-linecap="round" stroke-linejoin="round"/><path d="m286.9 134.1s-6.3-15.2 0-23.7 8.5 0 8.5 0 2.7-8.9 12.1-7.2 7.8-4 13.2-3.6 15.1 2 14.2 11.8-10.9 12-10.9 12l-25.5 19.7-8 4.8c-2.5 1.5-5.7.7-7.2-1.8-1-1.6-1-3.6-.1-5.3z" fill="#3b4043" stroke="#fff" stroke-miterlimit="10"/><path d="m301.2 123.4s11.6 6.3 22.8 0c0 0 4.5 36.6-17 33.1l-3.1 17 4.9 2.2s-24.6 5.8-31.3-8c0 0 6.2 0 7.1-1.8s5.3-24.1 5.3-24.1-8.9-5.8-6.3-10.7 8 4 8 4-.9 3.6 4 3.6 5.6-15.3 5.6-15.3z" fill="#fcc1a9"/><path d="m277.5 167.6s6.2 0 7.1-1.8 5.4-24.1 5.4-24.1-8.9-5.8-6.3-10.7 8 4 8 4-.9 3.6 4 3.6 5.4-15.2 5.4-15.2 11.6 6.3 22.8 0c0 0 4.5 36.6-17 33.1l-3.1 17 4.9 2.2" fill="none" stroke="#3b4043" stroke-linecap="round" stroke-linejoin="round"/><path d="m295.4 145.4s2 7.4 11.6 11.1l-1.4 7.6s-10.6-4.6-10.2-18.7z" fill="#3b4043" stroke="#3b4043" stroke-linecap="round" stroke-linejoin="round"/><path d="m514 386.9v-139h-194.6v139z" fill="#f1f3f4"/><path d="m441.1 247.9h-121.7v89.4" fill="none" stroke="#3b4043" stroke-linecap="round" stroke-linejoin="round"/><path d="m271.9 228.9s10.1 46.9 12.9 47.4 33.2 25.9 37.2 25.9 7.7-1.2 14.6-1.9-5.5 6-5.5 6 16.4.3 18.5 2.4-12.9 2.3-12.9 2.3 9.9 1 13.1 3-14.9 0-14.9 0 12.7 3 13.4 5-16-1.7-16-1.7 10.7 4.4 11.4 6.7-18.4-3-28.5-10.4c-7.1-5.2-49.9-18.8-52.3-24.5s-16.4-51.3-16.4-51.3 13.8-11.9 25.4-8.9z" fill="#fcc1a9"/><path d="m277.5 232.2-41.5 17.4s-.1-12.4.1-18.1c0-.8 0-1.7.1-2.6.1-3.6.3-7.7.7-12.1.1-1 .2-2.1.3-3.2.2-2.1.4-4.2.7-6.3.1-1.2.3-2.3.5-3.5 1.8-12.5 5.2-26.3 11.2-29.2 14.4-7 15 0 15 0s2.3 8.5 5.1 17.6l.7 2.3c.7 2.2 1.4 4.6 2.1 7.1.2.8.5 1.6.7 2.5.9 3.1 1.7 6.3 2.5 9.6.2.8.4 1.6.5 2.3.3 2.6.8 13.8 1.3 16.2z" fill="#d2e3fc"/><g stroke-linecap="round"><path d="m272 204.7c.2.8 5.1 25.1 5.6 27.5l-41.6 17.4s-.1-12.4.1-18.1c0-.8 0-1.7.1-2.6.1-3.6.3-7.7.7-12.1.1-1 .2-2.1.3-3.2.2-2.1.4-4.2.7-6.3.1-1.2.3-2.3.5-3.5 1.8-12.5 5.2-26.3 11.2-29.2 3.6-1.6 7.3-3 11.1-4" fill="none" stroke="#3b4043" stroke-linejoin="round"/><path d="m483.8 273.2h-129.8v86.5h129.7v-86.5z" fill="#fff" stroke="#3c4043" stroke-linejoin="round"/><path d="m363.2 283.2c1.1 0 2-.9 2-2s-.9-2-2-2-2 .9-2 2c0 1.1.9 2 2 2z" fill="none" stroke="#3c4043" stroke-linejoin="round"/><path d="m371 283.2c1.1 0 2-.9 2-2s-.9-2-2-2-2 .9-2 2c0 1.1.9 2 2 2z" fill="none" stroke="#3c4043" stroke-linejoin="round"/><path d="m354 289h120" fill="none" stroke="#3c4043" stroke-linejoin="round"/><path d="m402.1 323.8h21.6" fill="none" stroke="#3c4043" stroke-linejoin="round"/><path d="m403.3 308.2h21.6" fill="none" stroke="#3c4043" stroke-linejoin="round"/><path d="m402.1 339.4h21.6" fill="none" stroke="#3c4043" stroke-linejoin="round"/><path d="m400.1 327.5h-30.4c-2 0-3.6-1.6-3.6-3.6s1.6-3.6 3.6-3.6h30.4c2 0 3.6 1.6 3.6 3.6s-1.6 3.6-3.6 3.6z" fill="#fff" stroke="#3c4043" stroke-linejoin="round"/><path d="m400.1 311.8h-30.4c-2-.1-3.5-1.8-3.4-3.8.1-1.9 1.6-3.3 3.4-3.4h30.4c2-.1 3.7 1.4 3.8 3.4s-1.4 3.7-3.4 3.8c-.2 0-.3 0-.4 0z" fill="#fff" stroke="#3c4043" stroke-linejoin="round"/><path d="m400.1 343.1h-30.4c-2-.1-3.5-1.8-3.4-3.8.1-1.9 1.6-3.3 3.4-3.4h30.4c2-.1 3.7 1.4 3.8 3.4s-1.4 3.7-3.4 3.8c-.2 0-.3 0-.4 0z" fill="#fff" stroke="#3c4043" stroke-linejoin="round"/><path d="m469.5 304.4h-45.9v40.6h45.9z" fill="#d2e3fc" stroke="#d2e3fc" stroke-linejoin="round"/><path d="m446.5 316.6-2.5 5.6-5.6 2.5 5.6 2.5 2.5 5.6 2.5-5.6 5.6-2.5-5.6-2.5z" fill="none" stroke="#3c4043" stroke-linejoin="round"/></g><path clip-rule="evenodd" d="m948 204.9v246.4h-393.3v-240" fill="#fff" fill-rule="evenodd"/><path d="m948 204.9v246.4h-393.3v-240" fill="none" stroke="#fff" stroke-linecap="round" stroke-linejoin="round"/><path d="m948.7 204.5v246.4h-393.3v-176" fill="none" stroke="#3c4043" stroke-linecap="round" stroke-linejoin="round"/><path d="m825 386.5h-111.5l-.7-57h-90l-.8-52.7h59.1v-76.4" fill="none" stroke="#3c4043" stroke-linecap="round" stroke-linejoin="round"/><path d="m947.5 432.7v-16.1h-122z" style="fill-rule:evenodd;clip-rule:evenodd;fill:#3c4043;stroke:#3c4043;stroke-linecap:round;stroke-linejoin:round"/><path d="m824.5 416.8h158.1v-144.4h-158.1z" style="fill-rule:evenodd;clip-rule:evenodd;fill:#fff;stroke:#3c4043;stroke-linecap:round;stroke-linejoin:round"/><path clip-rule="evenodd" d="m840.5 399.7h127.3v-114.5h-127.3z" fill="#4285f4" fill-rule="evenodd" stroke="#4285f4" stroke-linejoin="round"/><path clip-rule="evenodd" d="m555.4 218 393.3 16v-16z" fill="#3c4043" fill-rule="evenodd" stroke="#3c4043" stroke-linejoin="round"/><path d="m555.4 218h453v-69.7h-453z" style="fill-rule:evenodd;clip-rule:evenodd;fill:#fff;stroke:#3c4043;stroke-linecap:round;stroke-linejoin:round"/><path d="m895.2 195.6h-273.8c-6.9.2-12.6-5.2-12.8-12.1s5.2-12.6 12.1-12.8h.7 273.8c6.9-.2 12.6 5.2 12.8 12.1s-5.2 12.6-12.1 12.8c-.2 0-.4 0-.7 0z" fill="none" stroke="#3c4043" stroke-linecap="round" stroke-linejoin="round"/><path d="m942.5 195.6c-6.9 0-12.4-5.6-12.4-12.5s5.6-12.4 12.5-12.4 12.4 5.6 12.4 12.5-5.6 12.4-12.5 12.4z" fill="none" stroke="#3c4043" stroke-linecap="round" stroke-linejoin="round"/><path clip-rule="evenodd" d="m755.8 290.7h-149.3c-6.9 0-12.4-5.6-12.4-12.5s5.6-12.4 12.4-12.4h149.3c6.9 0 12.5 5.6 12.5 12.4s-5.7 12.5-12.5 12.5z" fill="#4285f4" fill-rule="evenodd"/><path d="m755.8 290.7h-149.3c-6.9 0-12.4-5.6-12.4-12.5s5.6-12.4 12.4-12.4h149.3c6.9 0 12.5 5.6 12.5 12.4s-5.7 12.5-12.5 12.5z" fill="none" stroke="#4285f4" stroke-linejoin="round"/><path d="m643.6 278.3h103.3" fill="none" stroke="#fff" stroke-linecap="round" stroke-linejoin="round"/><path d="m615 278.3h8.5" fill="none" stroke="#fff" stroke-linecap="round" stroke-linejoin="round"/><path clip-rule="evenodd" d="m781.7 341.1h-108.4c-6.9-.2-12.3-5.9-12.1-12.8.2-6.6 5.5-11.9 12.1-12.1h108.4c6.9.2 12.3 5.9 12.1 12.8-.2 6.7-5.5 12-12.1 12.1z" fill="#4285f4" fill-rule="evenodd"/><path d="m781.7 341.1h-108.4c-6.9-.2-12.3-5.9-12.1-12.8.2-6.6 5.5-11.9 12.1-12.1h108.4c6.9.2 12.3 5.9 12.1 12.8-.2 6.7-5.5 12-12.1 12.1" fill="none" stroke="#4285f4" stroke-linejoin="round"/><path d="m683 328.7h88.4" fill="none" stroke="#fff" stroke-linecap="round" stroke-linejoin="round"/><path clip-rule="evenodd" d="m727.6 398.3h-108.5c-6.9 0-12.5-5.6-12.5-12.4s5.6-12.5 12.4-12.5h108.4c6.9 0 12.4 5.6 12.4 12.5.2 6.8-5.4 12.4-12.2 12.4z" fill="#4285f4" fill-rule="evenodd"/><path d="m727.6 398.3h-108.5c-6.9 0-12.5-5.6-12.5-12.4s5.6-12.5 12.4-12.5h108.4c6.9 0 12.4 5.6 12.4 12.5.2 6.8-5.4 12.4-12.2 12.4" fill="none" stroke="#4285f4" stroke-linejoin="round"/><path d="m655.3 386.5h62" fill="none" stroke="#fff" stroke-linecap="round" stroke-linejoin="round"/><path d="m627 386.5h8.5" fill="none" stroke="#fff" stroke-linecap="round" stroke-linejoin="round"/><path d="m503.2 450.9h497.8" fill="none" stroke="#3c4043" stroke-linecap="round" stroke-linejoin="round"/></svg>