<svg id="Layer_1" data-name="Layer 1" xmlns="http://www.w3.org/2000/svg" xmlns:xlink="http://www.w3.org/1999/xlink" viewBox="0 0 350 550"><defs><style>.cls-1,.cls-13,.cls-16,.cls-17,.cls-18,.cls-2,.cls-22,.cls-27,.cls-3,.cls-30,.cls-33,.cls-5,.cls-9{fill:none;}.cls-1,.cls-13,.cls-16,.cls-17,.cls-18,.cls-19,.cls-2,.cls-27,.cls-30,.cls-31,.cls-33{stroke-miterlimit:10;}.cls-1,.cls-16,.cls-17,.cls-18,.cls-19,.cls-2,.cls-30,.cls-31{stroke-width:0.85px;}.cls-1{stroke:url(#linear-gradient);}.cls-16,.cls-2{stroke:url(#linear-gradient-2);}.cls-2{clip-path:url(#clip-path);}.cls-19,.cls-4,.cls-6{fill:#fff;}.cls-4,.cls-5,.cls-9{stroke:#3b4043;}.cls-22,.cls-5,.cls-9{stroke-linecap:round;stroke-linejoin:round;}.cls-7{fill:#ffb600;}.cls-8{fill:#f9f9fa;}.cls-9{stroke-width:2px;}.cls-10{fill:#ffb800;}.cls-11{fill:#e7e9ec;}.cls-12{fill:#0f81ff;}.cls-13{stroke:#0f81ff;}.cls-14{fill:#c9e1ff;}.cls-15{isolation:isolate;}.cls-17{stroke:url(#linear-gradient-3);}.cls-18{stroke:url(#linear-gradient-7);}.cls-19{stroke:url(#linear-gradient-8);}.cls-20{fill:#faba05;}.cls-21{clip-path:url(#clip-path-3);}.cls-22{stroke:#fff;}.cls-23,.cls-31{fill:#4285f4;}.cls-24{fill:#ea4335;}.cls-25{fill:#fbbc05;}.cls-26{fill:#34a853;}.cls-27{stroke:#9aa0a6;stroke-width:1.43px;}.cls-28{fill:#9aa0a6;}.cls-29{fill:#3c4043;}.cls-30,.cls-33{stroke:#bdc1c6;}.cls-31{stroke:#1967d2;}.cls-32{fill:#fffff4;}.cls-33{stroke-width:0.71px;}.cls-34{fill:#757575;}</style><linearGradient id="linear-gradient" x1="174.44" y1="596.17" x2="174.44" y2="363.8" gradientUnits="userSpaceOnUse"><stop offset="0" stop-color="#fff"/><stop offset="0.2" stop-color="#fbfbfb"/><stop offset="0.4" stop-color="#eff0f1"/><stop offset="0.6" stop-color="#dadcdf"/><stop offset="0.8" stop-color="#bec2c6"/><stop offset="1" stop-color="#9aa0a6"/></linearGradient><linearGradient id="linear-gradient-2" x1="78.02" y1="549.21" x2="78.02" y2="418.93" xlink:href="#linear-gradient"/><clipPath id="clip-path"><rect class="cls-1" x="23.44" y="364.23" width="302" height="231.52" rx="7.21"/></clipPath><linearGradient id="linear-gradient-3" x1="167.88" y1="549.21" x2="167.88" y2="418.93" xlink:href="#linear-gradient"/><clipPath id="clip-path-2"><rect class="cls-2" x="36.41" y="419.35" width="83.22" height="129.44" rx="6.95"/></clipPath><linearGradient id="linear-gradient-7" x1="256.99" y1="549.21" x2="256.99" y2="418.93" xlink:href="#linear-gradient"/><linearGradient id="linear-gradient-8" x1="348.63" y1="549.21" x2="348.63" y2="418.93" xlink:href="#linear-gradient"/><clipPath id="clip-path-3"><circle class="cls-3" cx="307.86" cy="75.99" r="13.73"/></clipPath></defs><path class="cls-4" d="M12.77,38.35A25.48,25.48,0,0,1,38.26,12.87H313.49A25.48,25.48,0,0,1,339,38.35V556.73H12.77Z"/><path class="cls-5" d="M130,48.55h0a4.53,4.53,0,0,0,4.53,4.53h86.09a4.53,4.53,0,0,0,4.53-4.53h0"/><rect class="cls-6" x="38.28" y="221.86" width="275.18" height="4.04"/><rect class="cls-7" x="38.28" y="221.86" width="93.55" height="4.04"/><rect class="cls-8" x="38.28" y="226.07" width="275.18" height="55.12"/><rect class="cls-7" x="104.76" y="265.87" width="14.78" height="7.32"/><line class="cls-5" x1="175.87" y1="269.53" x2="192.61" y2="269.53"/><line class="cls-5" x1="104.76" y1="251.98" x2="213.4" y2="251.98"/><line class="cls-9" x1="104.76" y1="241.93" x2="136.66" y2="241.93"/><path class="cls-10" d="M126.29,271.81a2.28,2.28,0,1,0-2.28-2.28A2.28,2.28,0,0,0,126.29,271.81Z"/><path class="cls-10" d="M136.6,271.81a2.28,2.28,0,1,0-2.28-2.28A2.28,2.28,0,0,0,136.6,271.81Z"/><path class="cls-10" d="M146.91,271.81a2.28,2.28,0,1,0-2.28-2.28A2.28,2.28,0,0,0,146.91,271.81Z"/><path class="cls-11" d="M157.22,271.81a2.28,2.28,0,1,0-2.28-2.28A2.28,2.28,0,0,0,157.22,271.81Z"/><path class="cls-11" d="M167.53,271.81a2.28,2.28,0,1,0-2.28-2.28A2.28,2.28,0,0,0,167.53,271.81Z"/><rect class="cls-12" x="245.76" y="247.31" width="54.17" height="13.04"/><path class="cls-5" d="M38.28,300.45H282.94"/><path class="cls-5" d="M38.28,313.37H282.94"/><path class="cls-5" d="M38.28,326.29H159.5"/><path class="cls-5" d="M38.28,392.43H159.5"/><path class="cls-5" d="M38.28,339.21H58.67"/><path class="cls-5" d="M64.79,204.68H85.18"/><path class="cls-9" d="M45,124.68H102.8"/><path class="cls-13" d="M31.18,158.54H53.8"/><path class="cls-13" d="M94.25,158.54h42.59"/><path class="cls-13" d="M158.43,158.54H201"/><path class="cls-13" d="M222.62,158.54h42.6"/><path class="cls-13" d="M286.8,158.54h42.6"/><path class="cls-9" d="M110.32,124.68H143.1"/><rect class="cls-12" x="52.54" y="233.5" width="40.27" height="40.27" rx="4.93"/><path class="cls-6" d="M62.82,240.28v25.59L78,250.72A25.89,25.89,0,0,0,62.82,240.28Z"/><path class="cls-14" d="M75.86,265.87h6.65c0-.17,0-.34,0-.51A25.69,25.69,0,0,0,78,250.72L62.82,265.87C62.93,265.76,69.57,265.8,75.86,265.87Z"/><g class="cls-15"><rect class="cls-1" x="23.44" y="364.23" width="302" height="231.52" rx="7.21"/><rect class="cls-16" x="36.41" y="419.35" width="83.22" height="129.44" rx="6.95"/><rect class="cls-17" x="126.27" y="419.35" width="83.22" height="129.44" rx="6.95"/><rect class="cls-18" x="215.38" y="419.35" width="83.22" height="129.44" rx="6.95"/></g><rect class="cls-19" x="307.02" y="419.35" width="83.22" height="129.44" rx="6.95"/><circle class="cls-20" cx="307.86" cy="75.99" r="13.73"/><g class="cls-21"><circle class="cls-22" cx="307.81" cy="86.41" r="7.86"/></g><circle class="cls-22" cx="307.79" cy="72.32" r="3.56"/><path class="cls-23" d="M145,82.63a9.85,9.85,0,1,1,0-19.7,9.38,9.38,0,0,1,6.75,2.71l-1.9,1.9A6.85,6.85,0,0,0,145,65.62a7.16,7.16,0,0,0,0,14.32,6.58,6.58,0,0,0,5-2,5.59,5.59,0,0,0,1.47-3.39H145V71.89h9.06a9.34,9.34,0,0,1,.14,1.68,8.89,8.89,0,0,1-2.33,6.3A9,9,0,0,1,145,82.63Z"/><path class="cls-24" d="M168.57,76.29a6.32,6.32,0,1,1-6.31-6.35A6.24,6.24,0,0,1,168.57,76.29Zm-2.77,0a3.56,3.56,0,1,0-3.54,3.84A3.64,3.64,0,0,0,165.8,76.29Z"/><path class="cls-25" d="M182.59,76.29a6.31,6.31,0,1,1-6.31-6.35A6.24,6.24,0,0,1,182.59,76.29Zm-2.76,0a3.56,3.56,0,1,0-3.55,3.84A3.64,3.64,0,0,0,179.83,76.29Z"/><path class="cls-23" d="M196.32,70.33V81.72c0,4.68-2.77,6.61-6,6.61a6.06,6.06,0,0,1-5.62-3.75l2.43-1a3.51,3.51,0,0,0,3.19,2.26c2.1,0,3.39-1.3,3.39-3.73v-.91h-.09a4.33,4.33,0,0,1-3.34,1.44,6.35,6.35,0,0,1,0-12.69,4.43,4.43,0,0,1,3.34,1.42h.09v-1Zm-2.46,6a3.57,3.57,0,0,0-3.38-3.87,3.86,3.86,0,0,0,0,7.69A3.54,3.54,0,0,0,193.86,76.31Z"/><path class="cls-26" d="M201.92,63.6V82.25h-2.79V63.6Z"/><path class="cls-24" d="M213.78,78.38l2.16,1.44a6.33,6.33,0,0,1-5.29,2.81,6.21,6.21,0,0,1-6.3-6.34,6,6,0,0,1,6-6.35,5.9,5.9,0,0,1,5.43,4l.29.72-8.48,3.51a3.21,3.21,0,0,0,3.07,1.92A3.63,3.63,0,0,0,213.78,78.38Zm-6.66-2.28,5.67-2.36a2.47,2.47,0,0,0-2.36-1.35A3.48,3.48,0,0,0,207.12,76.1Z"/><line class="cls-27" x1="23.7" y1="84.74" x2="40.91" y2="84.74"/><line class="cls-27" x1="23.7" y1="72.72" x2="40.91" y2="72.72"/><line class="cls-27" x1="23.7" y1="78.7" x2="40.91" y2="78.7"/><path class="cls-28" d="M182.77,396.63h-9.14v-9.15h4.57v-1.3h-4.57a1.3,1.3,0,0,0-1.31,1.3v9.15a1.31,1.31,0,0,0,1.31,1.31h9.14a1.31,1.31,0,0,0,1.31-1.31v-4.57h-1.31Zm-3.26-10.45v1.3h2.34l-6.42,6.42.92.93,6.42-6.43v2.35h1.31v-4.57Z"/><rect class="cls-5" x="24.14" y="186.44" width="301.85" height="166.29" rx="7.21"/><path class="cls-29" d="M44.62,206.55H42.19l-.46,1.39H40.26l2.5-6.72H44l2.52,6.72H45.08Zm-2.06-1.12h1.68l-.84-2.52Z"/><path class="cls-29" d="M46.89,205.4a3,3,0,0,1,.52-1.86,1.71,1.71,0,0,1,1.44-.69,1.54,1.54,0,0,1,1.2.54v-2.54h1.34v7.09H50.18l-.06-.54a1.56,1.56,0,0,1-1.28.63,1.69,1.69,0,0,1-1.42-.7A3.12,3.12,0,0,1,46.89,205.4Zm1.33.1a1.92,1.92,0,0,0,.25,1.08.79.79,0,0,0,.71.37.89.89,0,0,0,.87-.52v-2a.88.88,0,0,0-.86-.53C48.54,203.93,48.22,204.46,48.22,205.5Z"/><path class="cls-29" d="M57.26,204.72a.66.66,0,0,1,.22-.52A.77.77,0,0,1,58,204a.8.8,0,0,1,.54.2.69.69,0,0,1,.21.52.66.66,0,0,1-.21.51.8.8,0,0,1-.54.2.77.77,0,0,1-.55-.2A.69.69,0,0,1,57.26,204.72Z"/><rect class="cls-30" x="30.5" y="108.12" width="291.64" height="32.47" rx="15.88"/><path class="cls-31" d="M287.9,140.77h18a16.24,16.24,0,0,0,16.23-16.24h0A16.23,16.23,0,0,0,305.9,108.3h-18Z"/><path class="cls-32" d="M311.88,129.25,307.67,125a5.27,5.27,0,1,0-1.21,1.3l4.17,4.17Zm-12-7a3.4,3.4,0,1,1,3.4,3.4A3.41,3.41,0,0,1,299.92,122.24Z"/><rect class="cls-23" x="19.89" y="172.44" width="45.13" height="3.15"/><line class="cls-33" x1="12.82" y1="175.63" x2="339.45" y2="175.63"/><path class="cls-34" d="M269.19,126.62A2.61,2.61,0,0,0,271.8,124v-5.24a2.62,2.62,0,0,0-5.23,0V124A2.61,2.61,0,0,0,269.19,126.62Zm4.63-2.62a4.63,4.63,0,0,1-9.25,0h-1.48a6.09,6.09,0,0,0,5.23,5.86v2.86h1.75v-2.86A6.08,6.08,0,0,0,275.3,124Z"/></svg>